<?xml version="1.0" encoding="UTF-8" standalone="no"?>
<svg
   xmlns:dc="http://purl.org/dc/elements/1.1/"
   xmlns:cc="http://creativecommons.org/ns#"
   xmlns:rdf="http://www.w3.org/1999/02/22-rdf-syntax-ns#"
   xmlns:svg="http://www.w3.org/2000/svg"
   xmlns="http://www.w3.org/2000/svg"
   xmlns:xlink="http://www.w3.org/1999/xlink"
   xmlns:sodipodi="http://sodipodi.sourceforge.net/DTD/sodipodi-0.dtd"
   xmlns:inkscape="http://www.inkscape.org/namespaces/inkscape"
   width="200mm"
   height="175mm"
   viewBox="0 0 200 175"
   version="1.1"
   id="svg1333"
   inkscape:version="1.0.1 (3bc2e813f5, 2020-09-07)"
   sodipodi:docname="Anti-Cloud logo square plain.svg"
   inkscape:export-filename="/home/byron/code/ac-website/site/static/images/updated-red.png"
   inkscape:export-xdpi="29.7974"
   inkscape:export-ydpi="29.7974">
  <defs
     id="defs1327">
    <linearGradient
       inkscape:collect="always"
       xlink:href="#linearGradient1134"
       id="linearGradient1051"
       gradientUnits="userSpaceOnUse"
       gradientTransform="matrix(1.5252952,0,0,1.4646178,-462.50109,83.976751)"
       x1="366.86127"
       y1="34.802479"
       x2="367.35074"
       y2="-12.101013" />
    <linearGradient
       inkscape:collect="always"
       id="linearGradient1134">
      <stop
         style="stop-color:#537386;stop-opacity:1"
         offset="0"
         id="stop1130" />
      <stop
         style="stop-color:#b3c0c2;stop-opacity:1"
         offset="1"
         id="stop1132" />
    </linearGradient>
    <linearGradient
       inkscape:collect="always"
       xlink:href="#linearGradient1134"
       id="linearGradient1053"
       gradientUnits="userSpaceOnUse"
       gradientTransform="matrix(1.5411737,0,0,1.5411737,-582.12281,79.941755)"
       x1="440.69882"
       y1="35.691841"
       x2="441.18326"
       y2="-8.8817759" />
    <linearGradient
       inkscape:collect="always"
       xlink:href="#linearGradient1180"
       id="linearGradient1055"
       gradientUnits="userSpaceOnUse"
       gradientTransform="matrix(1.5411737,0,0,1.5411737,-511.60093,-25.927886)"
       x1="392.35309"
       y1="105.40181"
       x2="392.35309"
       y2="59.738964" />
    <linearGradient
       inkscape:collect="always"
       id="linearGradient1180">
      <stop
         style="stop-color:#70b9e7;stop-opacity:1"
         offset="0"
         id="stop1176" />
      <stop
         style="stop-color:#ffffff;stop-opacity:1"
         offset="1"
         id="stop1178" />
    </linearGradient>
  </defs>
  <sodipodi:namedview
     id="base"
     pagecolor="#ffffff"
     bordercolor="#666666"
     borderopacity="1.0"
     inkscape:pageopacity="0.0"
     inkscape:pageshadow="2"
     inkscape:zoom="0.35"
     inkscape:cx="400"
     inkscape:cy="560"
     inkscape:document-units="mm"
     inkscape:current-layer="g1942"
     inkscape:document-rotation="0"
     showgrid="false"
     inkscape:window-width="1514"
     inkscape:window-height="968"
     inkscape:window-x="1958"
     inkscape:window-y="38"
     inkscape:window-maximized="0" />
  <metadata
     id="metadata1330">
    <rdf:RDF>
      <cc:Work
         rdf:about="">
        <dc:format>image/svg+xml</dc:format>
        <dc:type
           rdf:resource="http://purl.org/dc/dcmitype/StillImage" />
        <dc:title />
      </cc:Work>
    </rdf:RDF>
  </metadata>
  <g
     inkscape:label="Layer 1"
     inkscape:groupmode="layer"
     id="layer1">
    <g
       id="g1942"
       transform="translate(2.6342061,1.5277307)">
      <circle
         style="fill:none;fill-rule:evenodd;stroke:#e30613;stroke-width:16.7732;stroke-miterlimit:4;stroke-dasharray:none;stroke-opacity:1"
         id="circle1030"
         cx="95.523605"
         cy="85.892967"
         r="71.292107" />
      <path
         id="path1032"
         style="fill:url(#linearGradient1051);fill-opacity:1;stroke:url(#linearGradient1053);stroke-width:7.76978;stroke-miterlimit:4;stroke-dasharray:none;stroke-opacity:1;paint-order:stroke fill markers"
         d="M 95.119681,36.029804 C 76.826212,36.115183 61.076611,47.004531 57.172531,61.040031 53.016472,59.947201 47.378772,59.833099 43.539366,60.080654 23.783062,61.354491 8.8245526,75.612736 8.8245216,93.889343 c 3.1e-5,18.276617 17.9468754,33.352107 38.6409204,33.352147 8.253539,-9e-5 14.469499,-1.2272 21.832189,-5.28041 5.058661,5.47884 13.76563,11.2363 24.390421,11.23655 9.316988,2e-5 16.983978,-3.57953 23.044208,-9.64292 5.09153,3.08522 10.88997,3.94408 16.99613,3.9443 7.28926,-2.3e-4 12.8225,-1.70566 18.41649,-5.98324 3.30267,1.38674 9.26458,2.30731 12.9036,1.91435 11.72876,-1.26651 21.56587,-9.30818 22.09217,-21.15432 C 187.63504,91.147614 180.08816,82.027135 167.60134,79.062847 165.14438,62.27613 150.32079,54.933268 133.01866,59.645764 128.70997,45.18865 112.91869,36.029818 95.330281,36.029804 c -0.0701,-1.61e-4 -0.14056,-1.61e-4 -0.21068,0 z"
         sodipodi:nodetypes="scssccccccsscccss" />
      <path
         id="path1035"
         style="fill:url(#linearGradient1055);fill-opacity:1;stroke:none;stroke-width:7.76981;stroke-miterlimit:4;stroke-dasharray:none;stroke-opacity:1;paint-order:stroke fill markers"
         d="M 95.119681,36.029804 C 76.826212,36.115183 61.076611,47.004531 57.172531,61.040031 53.016472,59.947201 47.378772,59.833099 43.539366,60.080654 23.783062,61.354491 8.8245526,75.612733 8.8245216,93.889343 c 3.1e-5,18.276617 17.9468754,33.352107 38.6409204,33.352147 8.253539,-9e-5 14.469499,-1.22719 21.832189,-5.28041 5.058661,5.47884 13.76563,11.2363 24.390421,11.23655 9.316988,1e-5 16.983978,-3.57953 23.044208,-9.64291 5.09153,3.08521 10.88997,3.94407 16.99613,3.94429 7.28926,-2.3e-4 12.8225,-1.70566 18.41649,-5.98324 3.30267,1.38674 9.26459,2.30732 12.90361,1.91436 11.72876,-1.26652 21.56588,-9.30819 22.09217,-21.15433 C 187.63505,91.147614 180.08817,82.027133 167.60135,79.062844 165.1444,62.27613 150.32079,54.933268 133.01866,59.645764 128.70997,45.18865 112.91869,36.029818 95.330281,36.029804 c -0.0701,-1.61e-4 -0.14056,-1.61e-4 -0.21068,0 z"
         sodipodi:nodetypes="scssccccccsscccss" />
      <path
         style="fill:none;stroke:#e30613;stroke-width:17.9778;stroke-linecap:butt;stroke-linejoin:miter;stroke-miterlimit:4;stroke-dasharray:none;stroke-opacity:1"
         d="M 40.527556,33.259268 142.37824,135.10998"
         id="path1039" />
      <g
         aria-label="TM"
         transform="matrix(1.0429723,0,0,1.062908,195.70006,37.558903)"
         id="g1047"
         style="font-style:normal;font-variant:normal;font-weight:bold;font-stretch:condensed;font-size:7.81653px;line-height:1.25;font-family:'Liberation Sans Narrow';-inkscape-font-specification:'Liberation Sans Narrow, Bold Condensed';font-variant-ligatures:normal;font-variant-caps:normal;font-variant-numeric:normal;font-variant-east-asian:normal;fill:#000000;fill-opacity:1;stroke:none;stroke-width:0.195414">
        <path
           d="m -34.142307,-11.87115 v 4.507482 h -0.923633 v -4.507482 h -1.423616 v -0.870199 h 3.774682 v 0.870199 z"
           style="font-style:normal;font-variant:normal;font-weight:bold;font-stretch:condensed;font-size:7.81653px;font-family:'Liberation Sans Narrow';-inkscape-font-specification:'Liberation Sans Narrow, Bold Condensed';font-variant-ligatures:normal;font-variant-caps:normal;font-variant-numeric:normal;font-variant-east-asian:normal;stroke-width:0.195414"
           id="path1043" />
        <path
           d="M -28.554709,-7.363668 V -10.6231 q 0,-0.19465 0.0038,-0.40075 0.0038,-0.2061 0.01145,-0.37785 0,0 0.01527,-0.393116 0,0 -0.12595,0.5725 0,0 -0.05343,0.236633 l -0.05343,0.236633 -0.04962,0.213733 -0.0458,0.17175 -0.793866,2.999899 h -0.660283 l -0.793867,-2.999899 q -0.01908,-0.07252 -0.04198,-0.17175 l -0.04962,-0.213733 -0.05725,-0.236633 -0.05343,-0.236633 q 0,0 -0.133583,-0.5725 0.0076,0.221366 0.01908,0.4351 0.0076,0.1832 0.01145,0.385483 0.0076,0.202283 0.0076,0.351133 v 3.259432 h -0.820583 v -5.377681 h 1.2366 l 0.790049,3.007532 q 0.03053,0.1183166 0.06488,0.2900665 l 0.07252,0.3320499 q 0,0 0.08015,0.3892998 0,0 0.08397,-0.3816665 0,0 0.03817,-0.1641166 l 0.03817,-0.1641166 q 0.01908,-0.08015 0.03817,-0.1526666 l 0.03435,-0.1297666 0.774783,-3.0266153 h 1.232783 v 5.377681 z"
           style="font-style:normal;font-variant:normal;font-weight:bold;font-stretch:condensed;font-size:7.81653px;font-family:'Liberation Sans Narrow';-inkscape-font-specification:'Liberation Sans Narrow, Bold Condensed';font-variant-ligatures:normal;font-variant-caps:normal;font-variant-numeric:normal;font-variant-east-asian:normal;stroke-width:0.195414"
           id="path1045" />
      </g>
    </g>
  </g>
</svg>
