<?xml version="1.0" encoding="UTF-8" standalone="no"?>
<svg
   inkscape:version="1.1.1 (3bf5ae0d25, 2021-09-20, custom)"
   sodipodi:docname="input-keyboard.svg"
   id="svg25"
   version="1.1"
   viewBox="0 0 22 22"
   height="22px"
   width="22px"
   xmlns:inkscape="http://www.inkscape.org/namespaces/inkscape"
   xmlns:sodipodi="http://sodipodi.sourceforge.net/DTD/sodipodi-0.dtd"
   xmlns="http://www.w3.org/2000/svg"
   xmlns:svg="http://www.w3.org/2000/svg"
   xmlns:rdf="http://www.w3.org/1999/02/22-rdf-syntax-ns#"
   xmlns:cc="http://creativecommons.org/ns#"
   xmlns:dc="http://purl.org/dc/elements/1.1/">
  <metadata
     id="metadata31">
    <rdf:RDF>
      <cc:Work
         rdf:about="">
        <dc:format>image/svg+xml</dc:format>
        <dc:type
           rdf:resource="http://purl.org/dc/dcmitype/StillImage" />
      </cc:Work>
    </rdf:RDF>
  </metadata>
  <defs
     id="defs29" />
  <sodipodi:namedview
     inkscape:current-layer="surface1"
     inkscape:window-maximized="0"
     inkscape:window-y="36"
     inkscape:window-x="0"
     inkscape:cy="13.345588"
     inkscape:cx="2.0220588"
     inkscape:zoom="24.727273"
     showgrid="false"
     id="namedview27"
     inkscape:window-height="1380"
     inkscape:window-width="2560"
     inkscape:pageshadow="2"
     inkscape:pageopacity="0"
     guidetolerance="10"
     gridtolerance="10"
     objecttolerance="10"
     borderopacity="1"
     bordercolor="#666666"
     pagecolor="#282828"
     inkscape:document-rotation="0"
     inkscape:pagecheckerboard="0" />
  <g
     id="surface1">
    <g
       id="g853"
       transform="matrix(1.0171957,0,0,1.0299746,-0.18945249,-0.35732009)"
       style="stroke-width:0.908014;stroke-miterlimit:4;stroke-dasharray:none;fill:#000000">
      <path
         id="path4"
         d="m 7.2680977,13.881285 h 7.4643943 c 0.148509,0 0.267803,0.226013 0.267803,0.498934 v 1.002132 c 0,0.277185 -0.119294,0.498934 -0.267803,0.498934 H 7.2680977 c -0.1485086,0 -0.267803,-0.221749 -0.267803,-0.498934 v -1.002132 c 0,-0.272921 0.1192944,-0.498934 0.267803,-0.498934 z m 0,0"
         style="fill:#000000;fill-opacity:1;fill-rule:nonzero;stroke:none;stroke-width:0.908014;stroke-miterlimit:4;stroke-dasharray:none" />
      <g
         transform="matrix(1.295118,0,0,1.295118,-4.4726158,-3.6586941)"
         id="g882"
         style="stroke-width:0.701105;stroke-miterlimit:4;stroke-dasharray:none;fill:#000000">
        <path
           style="fill:#000000;fill-opacity:1;fill-rule:nonzero;stroke:none;stroke-width:0.701105;stroke-miterlimit:4;stroke-dasharray:none"
           d="m 8.5731437,11.362602 c 0,0.533919 -0.4312426,0.965163 -0.9651627,0.965163 -0.5298123,0 -0.9610553,-0.431244 -0.9610553,-0.965163 0,-0.533919 0.431243,-0.965163 0.9610553,-0.965163 0.5339201,0 0.9651627,0.431244 0.9651627,0.965163 z m 0,0"
           id="path6" />
        <path
           style="fill:#000000;fill-opacity:1;fill-rule:nonzero;stroke:none;stroke-width:0.701105;stroke-miterlimit:4;stroke-dasharray:none"
           d="m 11.464524,11.362602 c 0,0.533919 -0.431243,0.965163 -0.965163,0.965163 -0.5298121,0 -0.9610546,-0.431244 -0.9610546,-0.965163 0,-0.533919 0.4312425,-0.965163 0.9610546,-0.965163 0.53392,0 0.965163,0.431244 0.965163,0.965163 z m 0,0"
           id="path8" />
        <path
           style="fill:#000000;fill-opacity:1;fill-rule:nonzero;stroke:none;stroke-width:0.701105;stroke-miterlimit:4;stroke-dasharray:none"
           d="m 14.355904,11.362602 c 0,0.533919 -0.431242,0.965163 -0.965163,0.965163 -0.529812,0 -0.961054,-0.431244 -0.961054,-0.965163 0,-0.533919 0.431242,-0.965163 0.961054,-0.965163 0.533921,0 0.965163,0.431244 0.965163,0.965163 z m 0,0"
           id="path10" />
        <path
           style="fill:#000000;fill-opacity:1;fill-rule:nonzero;stroke:none;stroke-width:0.701105;stroke-miterlimit:4;stroke-dasharray:none"
           d="m 17.247284,11.362602 c 0,0.533919 -0.431242,0.965163 -0.965162,0.965163 -0.529813,0 -0.961055,-0.431244 -0.961055,-0.965163 0,-0.533919 0.431242,-0.965163 0.961055,-0.965163 0.53392,0 0.965162,0.431244 0.965162,0.965163 z m 0,0"
           id="path12" />
      </g>
      <g
         transform="matrix(1.2978804,0,0,1.2978804,-2.0029531,-2.3223255)"
         id="g889"
         style="stroke-width:0.699613;stroke-miterlimit:4;stroke-dasharray:none;fill:#000000">
        <path
           style="fill:#000000;fill-opacity:1;fill-rule:nonzero;stroke:none;stroke-width:0.699613;stroke-miterlimit:4;stroke-dasharray:none"
           d="m 15.321067,7.5060593 c 0,0.5339202 -0.431244,0.9651627 -0.965163,0.9651627 -0.533919,0 -0.965163,-0.4312425 -0.965163,-0.9651627 0,-0.5298123 0.431244,-0.9610548 0.965163,-0.9610548 0.533919,0 0.965163,0.4312425 0.965163,0.9610548 z m 0,0"
           id="path14" />
        <path
           style="fill:#000000;fill-opacity:1;fill-rule:nonzero;stroke:none;stroke-width:0.699613;stroke-miterlimit:4;stroke-dasharray:none"
           d="m 6.6469257,7.5060593 c 0,0.5339202 -0.4312436,0.9651627 -0.9651627,0.9651627 -0.5339191,0 -0.9651627,-0.4312425 -0.9651627,-0.9651627 0,-0.5298123 0.4312436,-0.9610548 0.9651627,-0.9610548 0.5339191,0 0.9651627,0.4312425 0.9651627,0.9610548 z m 0,0"
           id="path16" />
        <path
           style="fill:#000000;fill-opacity:1;fill-rule:nonzero;stroke:none;stroke-width:0.699613;stroke-miterlimit:4;stroke-dasharray:none"
           d="m 9.5383064,7.5060593 c 0,0.5339202 -0.4312436,0.9651627 -0.9651627,0.9651627 -0.5339191,0 -0.9651627,-0.4312425 -0.9651627,-0.9651627 0,-0.5298123 0.4312436,-0.9610548 0.9651627,-0.9610548 0.5339191,0 0.9651627,0.4312425 0.9651627,0.9610548 z m 0,0"
           id="path18" />
        <path
           style="fill:#000000;fill-opacity:1;fill-rule:nonzero;stroke:none;stroke-width:0.699613;stroke-miterlimit:4;stroke-dasharray:none"
           d="m 12.429687,7.5060593 c 0,0.5339202 -0.431244,0.9651627 -0.965163,0.9651627 -0.533919,0 -0.965163,-0.4312425 -0.965163,-0.9651627 0,-0.5298123 0.431244,-0.9610548 0.965163,-0.9610548 0.533919,0 0.965163,0.4312425 0.965163,0.9610548 z m 0,0"
           id="path20" />
      </g>
    </g>
    <rect
       style="opacity:1;fill:none;fill-rule:evenodd;stroke:#000000;stroke-width:1.3;stroke-miterlimit:4;stroke-dasharray:none;stroke-opacity:1"
       id="rect859"
       width="20"
       height="15"
       x="1"
       y="3.5"
       rx="0"
       ry="0" />
  </g>
</svg>
