<?xml version="1.0" encoding="UTF-8" standalone="no"?>
<svg
   xmlns:dc="http://purl.org/dc/elements/1.1/"
   xmlns:cc="http://creativecommons.org/ns#"
   xmlns:rdf="http://www.w3.org/1999/02/22-rdf-syntax-ns#"
   xmlns:svg="http://www.w3.org/2000/svg"
   xmlns="http://www.w3.org/2000/svg"
   xmlns:sodipodi="http://sodipodi.sourceforge.net/DTD/sodipodi-0.dtd"
   xmlns:inkscape="http://www.inkscape.org/namespaces/inkscape"
   width="22"
   height="22"
   viewBox="0 0 22 22"
   version="1.1"
   id="svg11"
   sodipodi:docname="nm-signal-100.svg"
   inkscape:version="1.0.1 (3bc2e813f5, 2020-09-07)">
  <metadata
     id="metadata17">
    <rdf:RDF>
      <cc:Work
         rdf:about="">
        <dc:format>image/svg+xml</dc:format>
        <dc:type
           rdf:resource="http://purl.org/dc/dcmitype/StillImage" />
        <dc:title />
      </cc:Work>
    </rdf:RDF>
  </metadata>
  <defs
     id="defs15" />
  <sodipodi:namedview
     inkscape:document-rotation="0"
     pagecolor="#ffffff"
     bordercolor="#666666"
     borderopacity="1"
     objecttolerance="10"
     gridtolerance="10"
     guidetolerance="10"
     inkscape:pageopacity="0"
     inkscape:pageshadow="2"
     inkscape:window-width="1920"
     inkscape:window-height="1024"
     id="namedview13"
     showgrid="false"
     units="px"
     inkscape:zoom="18.818182"
     inkscape:cx="-8.1335854"
     inkscape:cy="14.19049"
     inkscape:window-x="0"
     inkscape:window-y="34"
     inkscape:window-maximized="0"
     inkscape:current-layer="g879" />
  <g
     id="g879"
     transform="matrix(1.0500001,0,0,1.1260953,-0.63408248,-1.1295667)">
    <g
       id="g846"
       transform="matrix(1.000012,0,0,0.95,-2.379832e-4,-0.32725623)">
      <path
         sodipodi:nodetypes="ccccc"
         style="fill:#000000;fill-opacity:0.439216;fill-rule:nonzero;stroke:none;stroke-width:1.16514"
         d="m 21.556232,6.0886547 -1.12917,1.6698184 C 15.510748,2.9060236 5.398305,3.3290073 1.6897225,7.8635592 c -0.92404563,-1.0946888 0,0 -1.08540324,-1.3832259 C 4.1742378,1.0188916 17.651736,1.0220161 21.556232,6.0886547 Z"
         id="path2" />
      <path
         sodipodi:nodetypes="ccccc"
         style="fill:#000000;fill-opacity:0.439216;fill-rule:nonzero;stroke:none;stroke-width:1.16514"
         d="m 18.740585,10.116206 -1.255344,1.851766 C 14.579852,8.7602791 8.6442278,7.799759 4.8242891,11.992722 3.9002433,10.903054 4.0307526,11.106984 3.4663768,10.372624 7.8349685,5.57708 15.733311,6.7769009 18.740585,10.116206 Z"
         id="path4" />
      <path
         style="fill:#000000;fill-opacity:0.439216;fill-rule:nonzero;stroke:none;stroke-width:1.25043"
         d="m 12.082598,17.26111 c 0.565741,0.632749 0.579427,1.689072 0.03193,2.33751 -0.54749,0.648436 -1.469095,0.664126 -2.034835,0.03659 -0.5657388,-0.627519 -0.5839885,-1.689074 -0.03193,-2.33751 0.547489,-0.648437 1.469097,-0.664125 2.034834,-0.0366 z m -0.839483,0.993572 c -0.09581,-0.109822 -0.237244,-0.109822 -0.333056,0.0052 -0.09581,0.115044 -0.09126,0.271922 0.0045,0.38174 0.100381,0.109823 0.24181,0.109823 0.33762,-0.0052 0.09581,-0.115045 0.09126,-0.271925 -0.0092,-0.381742 z m 0,0"
         id="path8" />
      <path
         id="path4-3"
         d="m 15.180729,13.972429 -0.939721,1.571224 C 12.760063,13.760066 10.265362,13.061685 8.1159036,15.625012 7.595948,14.958853 7.297394,14.590211 6.9798226,14.141268 9.4380055,11.209555 13.488551,11.93097 15.180729,13.972426 Z"
         style="fill:#000000;fill-opacity:0.439216;fill-rule:nonzero;stroke:none;stroke-width:0.683373"
         sodipodi:nodetypes="ccccc" />
      <path
         id="path834"
         d="m 10.47659,19.907666 c -0.8689215,-0.462201 -1.0758382,-1.818869 -0.397408,-2.605638 0.402169,-0.466391 1.036072,-0.597394 1.578594,-0.326235 0.514145,0.256977 0.813067,0.777574 0.819476,1.427188 0.005,0.502211 -0.114354,0.851021 -0.402837,1.17773 -0.295459,0.334609 -0.586233,0.47125 -1.002828,0.47125 -0.256241,0 -0.380279,-0.03008 -0.594997,-0.144295 z m 0.765796,-1.247032 c 0.05567,-0.05668 0.101217,-0.149439 0.101217,-0.206122 0,-0.1123 -0.166653,-0.309183 -0.261709,-0.309183 -0.111731,0 -0.244376,0.17057 -0.244376,0.314248 0,0.09006 0.04197,0.173619 0.112478,0.2239 0.144748,0.103234 0.170549,0.101218 0.29239,-0.02285 z"
         style="opacity:0.852;fill:#000000;fill-rule:evenodd;stroke:#000000;stroke-width:0.0456032" />
      <path
         id="path836"
         d="M 7.5383814,14.857085 6.997407,14.151705 7.3359474,13.801859 c 0.786495,-0.812758 1.8656147,-1.365911 2.9917956,-1.533581 0.261068,-0.03887 0.66914,-0.0521 1.061581,-0.03442 1.3306,0.05994 2.532578,0.549354 3.427031,1.395399 l 0.346562,0.327806 -0.448736,0.754337 c -0.246805,0.414886 -0.459611,0.754338 -0.472904,0.754338 -0.01329,0 -0.206038,-0.174208 -0.428323,-0.387129 -0.484032,-0.46364 -0.95045,-0.755834 -1.546794,-0.969015 -0.398847,-0.14258 -0.500791,-0.157893 -1.049078,-0.157577 -0.521664,2.99e-4 -0.664394,0.01968 -1.01217,0.13738 -0.5803872,0.196433 -1.115577,0.536994 -1.6353391,1.040628 -0.2490536,0.241326 -0.461238,0.437349 -0.471521,0.435608 -0.010283,-0.0017 -0.2621346,-0.320587 -0.5596705,-0.708547 z"
         style="opacity:0.852;fill:#000000;fill-rule:evenodd;stroke:#000000;stroke-width:0.0456032" />
      <path
         id="path838"
         d="M 4.3547304,11.410178 C 4.0915295,11.10414 3.7889598,10.743999 3.6823532,10.609862 l -0.1938304,-0.243883 0.286259,-0.28457 C 5.3715085,8.4941001 7.4878132,7.5235426 9.9056875,7.2697171 c 0.7505555,-0.078792 2.3393055,-0.038191 3.0826915,0.078779 2.103766,0.3310252 4.023315,1.1905035 5.340312,2.3911249 0.194228,0.1770654 0.353143,0.345612 0.353143,0.37455 0,0.04591 -1.055558,1.64167 -1.167637,1.765198 C 17.490131,11.905901 17.2855,11.746186 17.038345,11.50797 15.760617,10.276456 13.956192,9.4625913 11.97756,9.2253611 11.365214,9.1519432 10.179754,9.191598 9.5616615,9.3061751 7.9143269,9.6115455 6.3878095,10.411531 5.2164088,11.583344 L 4.8332774,11.96661 Z"
         style="opacity:0.852;fill:#000000;fill-rule:evenodd;stroke:#000000;stroke-width:0.0456032" />
      <path
         id="path840"
         d="M 1.4054272,7.4802699 C 1.2593492,7.2950693 1.0236658,6.9920997 0.88168629,6.8070042 L 0.62354174,6.4704668 0.97644917,6.0219492 C 2.3020037,4.337274 4.9699098,3.0590758 8.1536743,2.5833291 9.3312528,2.4073648 10.156805,2.3622959 11.658185,2.3920097 c 1.923086,0.03806 3.330461,0.2360539 4.856246,0.683193 2.064158,0.6049117 3.894105,1.6537647 4.79331,2.7473347 L 21.52867,6.0912213 21.156698,6.6431468 C 20.952114,6.9467057 20.704921,7.3124776 20.60738,7.4559731 L 20.430034,7.7168743 19.998758,7.3370306 C 18.281511,5.8245776 15.901371,4.8177491 13.064291,4.403665 12.073402,4.2590405 9.6061064,4.2738085 8.6107449,4.4303218 5.8009597,4.8721397 3.7010384,5.8112867 2.1943746,7.2999127 L 1.6710235,7.8169983 Z"
         style="opacity:0.852;fill:#000000;fill-rule:evenodd;stroke:#000000;stroke-width:0.0456032" />
    </g>
  </g>
</svg>
