<?xml version="1.0" encoding="UTF-8" standalone="no"?>
<svg
   xmlns:dc="http://purl.org/dc/elements/1.1/"
   xmlns:cc="http://creativecommons.org/ns#"
   xmlns:rdf="http://www.w3.org/1999/02/22-rdf-syntax-ns#"
   xmlns:svg="http://www.w3.org/2000/svg"
   xmlns="http://www.w3.org/2000/svg"
   xmlns:sodipodi="http://sodipodi.sourceforge.net/DTD/sodipodi-0.dtd"
   xmlns:inkscape="http://www.inkscape.org/namespaces/inkscape"
   width="22"
   height="22"
   viewBox="0 0 22 22"
   version="1.1"
   id="svg11"
   sodipodi:docname="nm-signal-75.svg"
   inkscape:version="1.0.1 (3bc2e813f5, 2020-09-07)">
  <metadata
     id="metadata17">
    <rdf:RDF>
      <cc:Work
         rdf:about="">
        <dc:format>image/svg+xml</dc:format>
        <dc:type
           rdf:resource="http://purl.org/dc/dcmitype/StillImage" />
        <dc:title />
      </cc:Work>
    </rdf:RDF>
  </metadata>
  <defs
     id="defs15" />
  <sodipodi:namedview
     inkscape:document-rotation="0"
     pagecolor="#ffffff"
     bordercolor="#666666"
     borderopacity="1"
     objecttolerance="10"
     gridtolerance="10"
     guidetolerance="10"
     inkscape:pageopacity="0"
     inkscape:pageshadow="2"
     inkscape:window-width="1920"
     inkscape:window-height="1024"
     id="namedview13"
     showgrid="false"
     units="px"
     inkscape:zoom="18.818182"
     inkscape:cx="-8.2101444"
     inkscape:cy="14.19049"
     inkscape:window-x="0"
     inkscape:window-y="34"
     inkscape:window-maximized="0"
     inkscape:current-layer="g879" />
  <g
     id="g879"
     transform="matrix(1.0500001,0,0,1.1260953,-0.63408248,-1.1295667)">
    <g
       id="g844"
       transform="matrix(1,0,0,0.95,0,-0.32725621)">
      <path
         sodipodi:nodetypes="ccccc"
         style="fill:#000000;fill-opacity:0.439216;fill-rule:nonzero;stroke:none;stroke-width:1.16516"
         d="M 21.556267,6.0886547 20.427072,7.7584731 C 15.510648,2.9060236 5.3979804,3.3290073 1.6893154,7.8635592 c -0.92406618,-1.0946888 0,0 -1.08542738,-1.3832259 C 4.173886,1.0188916 17.651684,1.0220161 21.556267,6.0886547 Z"
         id="path2" />
      <path
         sodipodi:nodetypes="ccccc"
         style="fill:#000000;fill-opacity:0.439216;fill-rule:nonzero;stroke:none;stroke-width:1.16516"
         d="m 18.740557,10.116206 -1.255372,1.851766 C 14.579732,8.7602791 8.6439754,7.799759 4.8239517,11.992722 3.8998854,10.903054 4.0303976,11.106984 3.4660092,10.372624 7.8346981,5.57708 15.733216,6.7769009 18.740557,10.116206 Z"
         id="path4" />
      <path
         style="fill:#000000;fill-opacity:0.439216;fill-rule:nonzero;stroke:none;stroke-width:1.25045"
         d="m 12.082422,17.26111 c 0.565754,0.632749 0.57944,1.689072 0.03193,2.33751 -0.547502,0.648436 -1.469128,0.664126 -2.03488,0.03659 -0.5657519,-0.627519 -0.584002,-1.689074 -0.03193,-2.33751 0.547501,-0.648437 1.469129,-0.664125 2.034879,-0.0366 z m -0.839502,0.993572 c -0.09581,-0.109822 -0.237249,-0.109822 -0.333063,0.0052 -0.09581,0.115044 -0.09126,0.271922 0.0045,0.38174 0.100383,0.109823 0.241815,0.109823 0.337628,-0.0052 0.09581,-0.115045 0.09126,-0.271925 -0.0092,-0.381742 z m 0,0"
         id="path8" />
      <path
         id="path4-3"
         d="M 15.180622,13.972429 14.24088,15.543653 C 12.759902,13.760066 10.265146,13.061685 8.1156394,15.625012 7.5956723,14.958853 7.2971116,14.590211 6.9795332,14.141268 9.4377707,11.209555 13.488406,11.93097 15.180622,13.972426 Z"
         style="fill:#000000;fill-opacity:0.439216;fill-rule:nonzero;stroke:none;stroke-width:0.683381"
         sodipodi:nodetypes="ccccc" />
      <path
         id="path834"
         d="m 10.476378,19.907666 c -0.8689405,-0.462201 -1.0758618,-1.818869 -0.397416,-2.605638 0.402177,-0.466391 1.036095,-0.597394 1.578629,-0.326235 0.514156,0.256977 0.813084,0.777574 0.819494,1.427188 0.005,0.502211 -0.114356,0.851021 -0.402846,1.17773 -0.295465,0.334609 -0.586246,0.47125 -1.00285,0.47125 -0.256247,0 -0.380288,-0.03008 -0.595011,-0.144295 z m 0.765814,-1.247032 c 0.05567,-0.05668 0.101219,-0.149439 0.101219,-0.206122 0,-0.1123 -0.166657,-0.309183 -0.261715,-0.309183 -0.111734,0 -0.244381,0.17057 -0.244381,0.314248 0,0.09006 0.04197,0.173619 0.11248,0.2239 0.144751,0.103234 0.170553,0.101218 0.292397,-0.02285 z"
         style="opacity:0.852;fill:#000000;fill-rule:evenodd;stroke:#000000;stroke-width:0.0456038" />
      <path
         id="path836"
         d="M 7.5381044,14.857085 6.997118,14.151705 7.3356659,13.801859 c 0.7865124,-0.812758 1.8656561,-1.365911 2.9918621,-1.533581 0.261074,-0.03887 0.669155,-0.0521 1.061605,-0.03442 1.330629,0.05994 2.532634,0.549354 3.427107,1.395399 l 0.346569,0.327806 -0.448745,0.754337 c -0.246811,0.414886 -0.459622,0.754338 -0.472914,0.754338 -0.0133,0 -0.206043,-0.174208 -0.428334,-0.387129 -0.484043,-0.46364 -0.95047,-0.755834 -1.546828,-0.969015 -0.398855,-0.14258 -0.500802,-0.157893 -1.049101,-0.157577 -0.521676,2.99e-4 -0.664409,0.01968 -1.012192,0.13738 -0.5804008,0.196433 -1.1156025,0.536994 -1.6353761,1.040628 -0.2490593,0.241326 -0.4612484,0.437349 -0.4715315,0.435608 -0.010283,-0.0017 -0.2621405,-0.320587 -0.559683,-0.708547 z"
         style="opacity:0.852;fill:#000000;fill-rule:evenodd;stroke:#000000;stroke-width:0.0456038" />
      <path
         id="path838"
         d="M 4.3543826,11.410178 C 4.0911759,11.10414 3.7885994,10.743999 3.6819904,10.609862 L 3.4881557,10.365979 3.774421,10.081409 C 5.3711833,8.4941001 7.4875351,7.5235426 9.9054631,7.2697171 c 0.7505729,-0.078792 2.3393579,-0.038191 3.0827599,0.078779 2.103813,0.3310252 4.023404,1.1905035 5.340431,2.3911249 0.194232,0.1770654 0.35315,0.345612 0.35315,0.37455 0,0.04591 -1.055581,1.64167 -1.167662,1.765198 -0.02407,0.02653 -0.228702,-0.133184 -0.475863,-0.371399 C 15.760523,10.276456 13.956058,9.4625913 11.977382,9.2253611 11.365022,9.1519432 10.179536,9.191598 9.5614295,9.3061751 7.9140583,9.6115455 6.3875069,10.411531 5.2160801,11.583344 L 4.8329403,11.96661 Z"
         style="opacity:0.852;fill:#000000;fill-rule:evenodd;stroke:#000000;stroke-width:0.0456038" />
    </g>
  </g>
</svg>
