<?xml version="1.0" encoding="UTF-8" standalone="no"?>
<svg
   xmlns:dc="http://purl.org/dc/elements/1.1/"
   xmlns:cc="http://creativecommons.org/ns#"
   xmlns:rdf="http://www.w3.org/1999/02/22-rdf-syntax-ns#"
   xmlns:svg="http://www.w3.org/2000/svg"
   xmlns="http://www.w3.org/2000/svg"
   xmlns:sodipodi="http://sodipodi.sourceforge.net/DTD/sodipodi-0.dtd"
   xmlns:inkscape="http://www.inkscape.org/namespaces/inkscape"
   inkscape:version="1.0 (4035a4fb49, 2020-05-01)"
   sodipodi:docname="nm-signal-0.svg"
   id="svg11"
   version="1.1"
   viewBox="0 0 22 22"
   height="22"
   width="22">
  <metadata
     id="metadata17">
    <rdf:RDF>
      <cc:Work
         rdf:about="">
        <dc:format>image/svg+xml</dc:format>
        <dc:type
           rdf:resource="http://purl.org/dc/dcmitype/StillImage" />
        <dc:title></dc:title>
      </cc:Work>
    </rdf:RDF>
  </metadata>
  <defs
     id="defs15" />
  <sodipodi:namedview
     inkscape:current-layer="g879"
     inkscape:window-maximized="0"
     inkscape:window-y="54"
     inkscape:window-x="4"
     inkscape:cy="14.19049"
     inkscape:cx="0.037369534"
     inkscape:zoom="18.818182"
     units="px"
     showgrid="false"
     id="namedview13"
     inkscape:window-height="1021"
     inkscape:window-width="1910"
     inkscape:pageshadow="2"
     inkscape:pageopacity="0"
     guidetolerance="10"
     gridtolerance="10"
     objecttolerance="10"
     borderopacity="1"
     bordercolor="#666666"
     pagecolor="#ffffff" />
  <g
     transform="matrix(1.0500001,0,0,1.1260953,-0.63408248,-1.1295667)"
     id="g879">
    <path
       id="path2"
       d="M 21.556267,5.7724583 20.427072,7.3016118 C 15.510648,2.8579308 5.3979804,3.2452825 1.6893154,7.3978455 c -0.92406618,-1.0024726 0,0 -1.08542738,-1.2667035 C 4.173886,1.1297701 17.651684,1.1326314 21.556267,5.7724583 Z"
       style="fill:#000000;fill-opacity:0.439216;fill-rule:nonzero;stroke:none;stroke-width:1.115"
       sodipodi:nodetypes="ccccc" />
    <path
       id="path4"
       d="M 18.740557,9.4607306 17.485185,11.156504 C 14.579732,8.219026 8.6439754,7.3394198 4.8239517,11.179169 3.8998854,10.181294 4.0303976,10.368045 3.4660092,9.6955476 7.8346981,5.3039784 15.733216,6.4027269 18.740557,9.4607306 Z"
       style="fill:#000000;fill-opacity:0.439216;fill-rule:nonzero;stroke:none;stroke-width:1.115"
       sodipodi:nodetypes="ccccc" />
    <path
       id="path8"
       d="m 12.082422,16.00375 c 0.565754,0.579447 0.57944,1.546785 0.03193,2.140599 -0.547502,0.593812 -1.469128,0.60818 -2.03488,0.03351 -0.5657519,-0.574657 -0.584002,-1.546787 -0.03193,-2.140599 0.547501,-0.593813 1.469129,-0.60818 2.034879,-0.03352 z m -0.839502,0.909874 c -0.09581,-0.100571 -0.237249,-0.100571 -0.333063,0.0048 -0.09581,0.105353 -0.09126,0.249016 0.0045,0.349583 0.100383,0.100571 0.241815,0.100571 0.337628,-0.0048 0.09581,-0.105353 0.09126,-0.249018 -0.0092,-0.349584 z m 0,0"
       style="fill:#000000;fill-opacity:0.439216;fill-rule:nonzero;stroke:none;stroke-width:1.19662" />
    <path
       sodipodi:nodetypes="ccccc"
       style="fill:#000000;fill-opacity:0.439216;fill-rule:nonzero;stroke:none;stroke-width:0.653964"
       d="M 15.180622,12.992106 14.24088,14.430971 C 12.759902,12.797633 10.265146,12.158083 8.1156394,14.505476 7.5956723,13.895434 7.2971116,13.557847 6.9795332,13.146722 9.4377707,10.461976 13.488406,11.122619 15.180622,12.992104 Z"
       id="path4-3" />
  </g>
</svg>
