<?xml version="1.0" encoding="UTF-8" standalone="no"?>
<!-- Created with Inkscape (http://www.inkscape.org/) -->

<svg
   width="22"
   height="22"
   viewBox="0 0 5.8208334 5.8208337"
   version="1.1"
   id="svg827"
   inkscape:version="1.1.1 (3bf5ae0d25, 2021-09-20, custom)"
   sodipodi:docname="qbittorrent-tray.svg"
   xmlns:inkscape="http://www.inkscape.org/namespaces/inkscape"
   xmlns:sodipodi="http://sodipodi.sourceforge.net/DTD/sodipodi-0.dtd"
   xmlns="http://www.w3.org/2000/svg"
   xmlns:svg="http://www.w3.org/2000/svg">
  <sodipodi:namedview
     id="namedview829"
     pagecolor="#ffffff"
     bordercolor="#666666"
     borderopacity="1.0"
     inkscape:pageshadow="2"
     inkscape:pageopacity="0.0"
     inkscape:pagecheckerboard="0"
     inkscape:document-units="mm"
     showgrid="false"
     units="px"
     inkscape:zoom="15.138434"
     inkscape:cx="17.240885"
     inkscape:cy="8.3892429"
     inkscape:window-width="2560"
     inkscape:window-height="1380"
     inkscape:window-x="0"
     inkscape:window-y="36"
     inkscape:window-maximized="1"
     inkscape:current-layer="layer1" />
  <defs
     id="defs824" />
  <g
     inkscape:label="Layer 1"
     inkscape:groupmode="layer"
     id="layer1">
    <ellipse
       style="opacity:1;fill:none;fill-opacity:1;stroke:#000000;stroke-width:0.403521;stroke-miterlimit:4;stroke-dasharray:none;stroke-opacity:1"
       id="path932"
       cx="2.9104166"
       cy="2.9104166"
       rx="2.3779271"
       ry="2.3779273" />
    <g
       aria-label="qb"
       id="text25364"
       style="font-size:3.43958px;line-height:1.25;font-family:'Roboto Condensed';-inkscape-font-specification:'Roboto Condensed, ';stroke-width:0.0529167">
      <path
         d="m 1.3602543,2.8600323 q 0,-0.4249091 0.1545124,-0.6415623 0.1545124,-0.2183327 0.4601782,-0.2183327 0.2636787,0 0.4097937,0.2116147 L 2.3981745,2.0337269 H 2.6702506 V 4.5495916 H 2.3729822 V 3.691376 Q 2.2285467,3.8845165 1.9732654,3.8845165 1.679356,3.8845165 1.5214846,3.6712223 1.3636133,3.4562485 1.3602543,3.0464548 Z M 1.6575227,3.02966 q 0,0.3056658 0.094051,0.4534602 0.094051,0.1477945 0.2989479,0.1477945 0.2082558,0 0.3224606,-0.1998584 V 2.4569565 Q 2.2520595,2.2554186 2.0522011,2.2554186 q -0.2048969,0 -0.2989479,0.1477944 -0.094051,0.1477945 -0.095731,0.4450629 z"
         style="stroke:#000000"
         id="path40772" />
      <path
         d="m 4.4605789,3.02966 q 0,0.424909 -0.1528329,0.6398828 -0.1528329,0.2149737 -0.4433833,0.2149737 -0.288871,0 -0.4333065,-0.2485634 L 3.4159409,3.8509269 H 3.1455442 v -2.579685 h 0.2955889 v 0.9623434 q 0.146115,-0.233448 0.4198706,-0.233448 0.2989479,0 0.4484218,0.2116147 0.1494739,0.2116148 0.1511534,0.6382034 z M 4.16499,2.8600323 q 0,-0.3224607 -0.090692,-0.4584987 Q 3.9852854,2.263816 3.7837475,2.263816 q -0.2300891,0 -0.3426144,0.2485634 v 0.8649334 q 0.1108458,0.2452045 0.3459734,0.2452045 0.2015378,0 0.2888709,-0.1410766 0.087333,-0.1410765 0.089013,-0.4383449 z"
         style="stroke:#000000"
         id="path40774" />
    </g>
  </g>
</svg>
