<?xml version="1.0" encoding="UTF-8"?>
<svg xmlns="http://www.w3.org/2000/svg" xmlns:xlink="http://www.w3.org/1999/xlink" width="48" height="48" viewBox="0 0 48 48">
<path fill-rule="nonzero" fill="rgb(0%, 50.196081%, 0%)" fill-opacity="1" stroke-width="1" stroke-linecap="butt" stroke-linejoin="miter" stroke="rgb(0%, 37.64706%, 0%)" stroke-opacity="1" stroke-miterlimit="4" d="M 1.5 9.499998 L 6.999999 16.999997 L 12.499998 9.499998 L 9.499998 10.499998 C 9.499998 10.499998 9.499998 10.499998 9.499998 8.499998 C 9.499998 6.499999 10.499998 4.999999 11.999998 4.499999 C 13.499997 3.999999 14.9082 4.343749 16.499997 4.499999 C 18.091793 4.656249 21.999996 5.499999 21.999996 5.499999 C 21.999996 5.499999 18.222653 3.617187 15.999997 2.999999 C 13.779294 2.382812 10.499998 1.5 7.999998 2.5 C 5.499999 3.499999 4.499999 5.499999 4.499999 7.499999 C 4.499999 9.499998 4.499999 10.499998 4.499999 10.499998 Z M 1.5 9.499998 " transform="matrix(2, 0, 0, 2, 0, 0)"/>
<path fill-rule="nonzero" fill="rgb(50.196081%, 50.196081%, 50.196081%)" fill-opacity="1" stroke-width="1" stroke-linecap="butt" stroke-linejoin="miter" stroke="rgb(37.64706%, 37.64706%, 37.64706%)" stroke-opacity="1" stroke-miterlimit="4" d="M 22.499996 14.499997 L 16.999997 6.999999 L 11.499998 14.499997 L 14.499997 13.499997 C 14.499997 13.499997 14.499997 13.499997 14.499997 15.499997 C 14.499997 17.499997 13.499997 18.999996 11.999998 19.499996 C 10.499998 19.999996 9.091795 19.656246 7.499999 19.499996 C 5.908202 19.343746 2 18.499996 2 18.499996 C 2 18.499996 5.777343 20.382809 7.999998 20.999996 C 10.220701 21.617183 13.499997 22.499996 15.999997 21.499996 C 18.499996 20.499996 19.499996 18.499996 19.499996 16.499997 C 19.499996 14.499997 19.499996 13.499997 19.499996 13.499997 Z M 22.499996 14.499997 " transform="matrix(2, 0, 0, 2, 0, 0)"/>
</svg>
