<?xml version="1.0" encoding="UTF-8"?>
<svg xmlns="http://www.w3.org/2000/svg" xmlns:xlink="http://www.w3.org/1999/xlink" width="48" height="48" viewBox="0 0 48 48">
<path fill-rule="nonzero" fill="rgb(100%, 100%, 100%)" fill-opacity="0.890196" stroke-width="1" stroke-linecap="butt" stroke-linejoin="miter" stroke="rgb(50.196081%, 50.196081%, 50.196081%)" stroke-opacity="1" stroke-miterlimit="4" d="M 0.5 0.5 L 0.5 23.499996 L 18.499996 23.499996 L 18.499996 0.5 Z M 0.5 0.5 " transform="matrix(2, 0, 0, 2, 0, 0)"/>
<path fill-rule="nonzero" fill="rgb(50.196081%, 37.64706%, 25.098041%)" fill-opacity="1" stroke-width="1" stroke-linecap="butt" stroke-linejoin="miter" stroke="rgb(37.64706%, 28.235295%, 18.82353%)" stroke-opacity="1" stroke-miterlimit="4" d="M 21.499996 22.999996 L 23.499996 20.999996 L 18.999996 16.499997 L 16.999997 18.499996 Z M 21.499996 22.999996 " transform="matrix(2, 0, 0, 2, 0, 0)"/>
<path fill-rule="nonzero" fill="rgb(87.843138%, 87.843138%, 100%)" fill-opacity="0.752941" stroke-width="1" stroke-linecap="butt" stroke-linejoin="bevel" stroke="rgb(37.64706%, 28.235295%, 18.82353%)" stroke-opacity="1" stroke-miterlimit="4" d="M 18.999997 13.249997 C 18.999997 16.148434 16.537106 18.499996 13.499998 18.499996 C 10.460936 18.499996 7.999999 16.148434 7.999999 13.249997 C 7.999999 10.349607 10.460936 7.999998 13.499998 7.999998 C 16.537106 7.999998 18.999997 10.349607 18.999997 13.249997 Z M 18.999997 13.249997 " transform="matrix(2, 0, 0, 2, 1, 0)"/>
</svg>
