<?xml version="1.0" encoding="UTF-8"?>
<svg xmlns="http://www.w3.org/2000/svg" xmlns:xlink="http://www.w3.org/1999/xlink" width="48" height="48" viewBox="0 0 48 48">
<path fill-rule="nonzero" fill="rgb(100%, 94.509804%, 90.980393%)" fill-opacity="1" d="M 2.597656 16.578125 C 2.640625 16.710938 2.671875 16.84375 2.726562 16.96875 C 2.746094 17.007812 2.796875 17.019531 2.832031 17.046875 C 3 17.195312 3.136719 17.195312 3.34375 17.246094 C 3.445312 17.269531 3.519531 17.34375 3.617188 17.363281 C 4.148438 17.46875 4.765625 17.433594 5.296875 17.382812 C 5.75 17.335938 6.210938 17.367188 6.671875 17.339844 C 7.082031 17.3125 7.515625 17.175781 7.902344 17.046875 C 8.101562 16.984375 8.316406 16.953125 8.515625 16.902344 C 9.257812 16.707031 9.992188 16.550781 10.757812 16.476562 C 11.082031 16.445312 11.40625 16.445312 11.722656 16.40625 C 12.085938 16.363281 12.59375 16.191406 12.960938 16.097656 C 13.179688 16.039062 13.414062 16.015625 13.621094 15.910156 C 13.84375 15.796875 14.019531 15.640625 14.226562 15.507812 C 14.539062 15.304688 14.84375 15.09375 15.148438 14.875 C 15.226562 14.820312 15.324219 14.773438 15.390625 14.703125 C 15.601562 14.480469 15.835938 14.265625 16.039062 14.03125 C 16.304688 13.734375 16.53125 13.402344 16.84375 13.148438 C 17.179688 12.875 17.601562 12.640625 18.015625 12.5 C 18.203125 12.4375 18.394531 12.40625 18.578125 12.335938 C 19.660156 11.9375 20.640625 11.4375 21.816406 11.382812 C 22.359375 11.351562 22.929688 11.320312 23.464844 11.414062 C 23.710938 11.457031 23.980469 11.59375 24.214844 11.664062 C 24.707031 11.8125 25.171875 12.003906 25.644531 12.203125 C 26.511719 12.5625 27.34375 13.238281 28.3125 13.285156 C 28.613281 13.304688 28.953125 13.3125 29.25 13.261719 C 29.515625 13.214844 29.773438 13.140625 30.042969 13.097656 C 30.847656 12.976562 31.664062 12.867188 32.46875 12.710938 C 32.925781 12.628906 33.351562 12.460938 33.800781 12.355469 C 34.179688 12.265625 34.585938 12.234375 34.96875 12.191406 C 35.664062 12.113281 36.417969 12.097656 37.117188 12.140625 C 37.308594 12.15625 37.5 12.191406 37.691406 12.203125 C 38.699219 12.257812 39.722656 12.144531 40.734375 12.210938 C 41.230469 12.238281 41.722656 12.347656 42.226562 12.367188 C 42.695312 12.375 43.378906 12.308594 43.824219 12.429688 C 44.171875 12.53125 44.546875 12.664062 44.859375 12.851562 C 44.949219 12.90625 45.019531 12.980469 45.109375 13.03125 C 45.324219 13.15625 45.5625 13.246094 45.777344 13.378906 C 45.929688 13.472656 46.402344 13.550781 46.492188 13.695312 C 46.507812 13.734375 46.476562 13.8125 46.5 13.851562 C 46.539062 13.917969 46.53125 14.066406 46.507812 14.152344 C 46.480469 14.257812 46.398438 14.351562 46.351562 14.457031 C 45.929688 15.390625 44.996094 15.664062 44.089844 15.960938 C 43.8125 16.054688 43.554688 16.175781 43.289062 16.285156 C 43.09375 16.367188 42.847656 16.410156 42.636719 16.457031 C 42.371094 16.519531 42.089844 16.503906 41.816406 16.53125 C 41.40625 16.574219 40.976562 16.613281 40.566406 16.664062 C 39.988281 16.734375 39.40625 16.742188 38.828125 16.800781 C 37.976562 16.882812 37.132812 17.035156 36.300781 17.203125 C 36.132812 17.234375 35.957031 17.222656 35.789062 17.269531 C 35.648438 17.304688 35.523438 17.367188 35.382812 17.40625 C 35.160156 17.46875 34.929688 17.464844 34.710938 17.515625 C 34.410156 17.585938 33.652344 17.808594 33.488281 18.089844 C 33.390625 18.253906 33.40625 18.566406 33.40625 18.753906 C 33.40625 19.128906 33.375 19.519531 33.347656 19.894531 C 33.34375 20 33.296875 20.09375 33.285156 20.203125 C 33.273438 20.347656 33.308594 20.507812 33.273438 20.652344 C 33.113281 21.21875 32.667969 21.65625 32.667969 22.261719 C 32.667969 22.316406 32.652344 22.398438 32.675781 22.449219 C 32.890625 22.941406 33.507812 23.164062 33.917969 23.433594 C 34.132812 23.570312 34.359375 23.703125 34.53125 23.882812 C 34.667969 24.027344 34.800781 24.167969 34.960938 24.296875 C 35.183594 24.472656 35.445312 24.601562 35.628906 24.835938 C 35.742188 24.980469 35.898438 25.152344 35.960938 25.332031 C 36.070312 25.601562 36.195312 26.46875 36.132812 26.746094 C 36.109375 26.839844 36.015625 26.949219 35.960938 27.027344 C 35.796875 27.28125 35.789062 27.476562 35.789062 27.773438 C 35.789062 27.84375 35.765625 27.957031 35.792969 28.023438 C 36.019531 28.523438 36.773438 28.683594 37.15625 29.0625 C 37.339844 29.246094 37.496094 29.804688 37.515625 30.046875 C 37.527344 30.191406 37.507812 30.34375 37.523438 30.492188 C 37.542969 30.671875 37.585938 30.851562 37.5625 31.039062 C 37.550781 31.125 37.496094 31.199219 37.476562 31.285156 C 37.402344 31.570312 37.359375 31.867188 37.246094 32.140625 C 36.917969 32.960938 36.191406 33.484375 35.511719 33.984375 C 35.265625 34.167969 35.066406 34.40625 34.828125 34.59375 C 34.644531 34.738281 34.34375 34.917969 34.140625 35.019531 C 33.886719 35.148438 33.554688 35.132812 33.265625 35.257812 C 33 35.382812 32.765625 35.574219 32.515625 35.726562 C 32.347656 35.839844 32.148438 35.902344 31.972656 36.003906 C 31.800781 36.101562 31.636719 36.214844 31.449219 36.304688 C 31.246094 36.398438 31.046875 36.332031 30.828125 36.371094 C 30.417969 36.445312 30.007812 36.578125 29.582031 36.535156 C 29.480469 36.523438 29.386719 36.402344 29.292969 36.355469 C 29.175781 36.300781 29.023438 36.265625 28.921875 36.183594 C 28.707031 36.007812 28.503906 35.8125 28.269531 35.664062 C 27.929688 35.441406 27.390625 35.277344 26.992188 35.226562 C 26.675781 35.1875 26.351562 35.253906 26.039062 35.226562 C 24.847656 35.125 23.652344 35.210938 22.457031 35.175781 C 21.894531 35.15625 21.34375 35.085938 20.789062 35 C 20.546875 34.96875 20.289062 34.960938 20.046875 34.914062 C 19.9375 34.882812 19.824219 34.828125 19.710938 34.789062 C 19.40625 34.679688 18.894531 34.539062 18.578125 34.480469 C 18.308594 34.433594 18.027344 34.339844 17.757812 34.320312 C 17.253906 34.28125 16.660156 34.191406 16.179688 34.039062 C 15.839844 33.929688 15.464844 33.816406 15.148438 33.648438 C 14.855469 33.488281 14.609375 33.265625 14.28125 33.167969 C 14.113281 33.117188 13.941406 33.097656 13.773438 33.066406 C 13.050781 32.90625 12.285156 32.765625 11.625 32.421875 C 11.5 32.359375 11.351562 32.289062 11.242188 32.195312 C 11.148438 32.109375 11.0625 32.011719 10.953125 31.945312 C 10.707031 31.796875 10.425781 31.707031 10.167969 31.585938 C 9.609375 31.328125 9.046875 31.0625 8.515625 30.753906 C 7.832031 30.355469 7.171875 29.839844 6.382812 29.644531 C 5.96875 29.539062 5.535156 29.480469 5.109375 29.441406 C 4.855469 29.414062 4.601562 29.339844 4.351562 29.320312 C 3.347656 29.242188 2.554688 29.382812 1.683594 29.882812 C 1.359375 30.074219 0.753906 30.320312 0.488281 29.921875 C 0.285156 29.617188 0.296875 29.207031 0.273438 28.855469 C 0.234375 28.238281 0.207031 27.585938 0.242188 26.960938 C 0.253906 26.804688 0.285156 26.648438 0.296875 26.488281 C 0.324219 25.648438 0.332031 24.816406 0.371094 23.976562 C 0.382812 23.71875 0.375 23.460938 0.402344 23.203125 C 0.425781 22.949219 0.492188 22.707031 0.519531 22.457031 C 0.601562 21.695312 0.730469 20.945312 0.894531 20.195312 C 1.023438 19.597656 1.078125 18.929688 1.332031 18.371094 C 1.480469 18.039062 1.671875 17.664062 1.914062 17.382812 C 1.984375 17.292969 2.441406 16.9375 2.441406 16.925781 C 2.503906 16.8125 2.546875 16.695312 2.597656 16.578125 Z M 2.597656 16.578125 "/>
<path fill="none" stroke-width="0.672943" stroke-linecap="round" stroke-linejoin="miter" stroke="rgb(0%, 0%, 0%)" stroke-opacity="1" stroke-miterlimit="4" d="M -1.012109 8.870188 C 0.341406 8.897532 2.83164 8.870188 4.274999 8.389719 C 5.716405 7.909251 6.677342 6.94636 7.63828 6.465891 C 8.599217 5.985423 9.364842 6.010813 10.042576 5.985423 C 11.003514 5.985423 12.528904 6.450266 13.452732 7.186594 C 13.548435 7.253001 15.329685 8.870188 15.329685 9.350656 C 15.329685 9.831125 16.290622 11.272531 15.329685 11.753 C 13.886325 12.717843 12.023045 9.956125 11.003514 9.350656 " transform="matrix(2, 0, 0, 2, 2.7, -1.162254)"/>
<path fill="none" stroke-width="0.672943" stroke-linecap="butt" stroke-linejoin="round" stroke="rgb(0%, 0%, 0%)" stroke-opacity="1" stroke-miterlimit="4" d="M 12.925388 6.94636 C 13.767185 6.667063 17.251559 6.465891 19.173434 6.465891 C 21.099215 6.465891 23.021089 6.94636 22.060152 8.389719 C 21.099215 9.350656 17.251559 9.350656 15.329685 9.350656 " transform="matrix(2, 0, 0, 2, 2.7, -1.162254)"/>
<path fill="none" stroke-width="0.672943" stroke-linecap="round" stroke-linejoin="round" stroke="rgb(0%, 0%, 0%)" stroke-opacity="1" stroke-miterlimit="4" d="M 15.329685 11.753 C 15.915622 11.329172 14.925388 13.379953 14.366794 13.678781 C 13.405857 14.159249 11.483982 14.159249 10.173436 14.010812 C 9.560154 13.198312 9.560154 12.717843 10.523045 11.753 C 11.483982 10.792062 11.964451 11.753 12.925388 11.272531 " transform="matrix(2, 0, 0, 2, 2.7, -1.162254)"/>
<path fill="none" stroke-width="0.672943" stroke-linecap="round" stroke-linejoin="round" stroke="rgb(0%, 0%, 0%)" stroke-opacity="1" stroke-miterlimit="4" d="M 15.329685 12.717843 C 15.511325 12.547921 16.4957 12.827218 16.689059 13.073312 C 16.823825 13.260812 16.851169 13.475656 16.929294 13.669015 C 17.013278 14.323312 16.708591 14.657296 16.341403 15.081124 C 16.060153 15.407296 15.726169 15.723702 15.33945 15.924874 C 14.905857 16.145577 14.362888 16.333077 13.882419 16.40339 C 13.497654 16.424874 12.794529 16.495186 12.44492 16.561593 C 11.483982 16.081124 11.142185 16.52253 10.523045 15.120187 C 10.593357 14.514718 10.636326 14.460031 11.003514 14.159249 " transform="matrix(2, 0, 0, 2, 2.7, -1.162254)"/>
<path fill="none" stroke-width="0.672943" stroke-linecap="round" stroke-linejoin="round" stroke="rgb(0%, 0%, 0%)" stroke-opacity="1" stroke-miterlimit="4" d="M 16.888278 14.885812 C 17.48984 14.89753 17.431247 15.249093 17.634372 15.518624 C 17.853122 16.819405 17.257419 17.477608 16.3707 17.981514 C 15.763278 18.370186 15.169528 18.581123 14.528903 18.754952 C 12.862888 18.967842 12.10117 18.64753 12.347263 17.047921 C 12.358982 17.02253 12.374607 16.930733 12.431248 16.971749 C 12.452732 16.985421 12.476169 17.102608 12.44492 17.042061 " transform="matrix(2, 0, 0, 2, 2.7, -1.162254)"/>
<path fill="none" stroke-width="0.672943" stroke-linecap="round" stroke-linejoin="miter" stroke="rgb(0%, 0%, 0%)" stroke-opacity="1" stroke-miterlimit="4" d="M -1.012109 16.081124 C -0.0511719 15.120187 1.253515 15.639718 1.390234 15.600655 C 4.274999 16.561593 3.792577 17.042061 5.716405 17.52253 C 7.157811 18.002999 8.118748 18.002999 9.560154 18.002999 C 10.349217 18.090889 11.755467 17.516671 12.44492 17.52253 " transform="matrix(2, 0, 0, 2, 2.7, -1.162254)"/>
<path fill="none" stroke-width="0.672943" stroke-linecap="round" stroke-linejoin="round" stroke="rgb(0%, 0%, 0%)" stroke-opacity="1" stroke-miterlimit="4" d="M 6.196874 11.753 C 6.386327 11.90339 7.63828 12.233468 8.118748 12.233468 C 9.560154 12.233468 9.511326 12.137765 10.523045 11.753 " transform="matrix(2, 0, 0, 2, 2.7, -1.162254)"/>
<path fill="none" stroke-width="1.34589" stroke-linecap="butt" stroke-linejoin="miter" stroke="rgb(0%, 0%, 0%)" stroke-opacity="1" stroke-miterlimit="4" d="M -0.0511719 8.870188 L -0.0511719 15.600655 " transform="matrix(2, 0, 0, 2, 2.7, -1.162254)"/>
</svg>
