<?xml version="1.0" encoding="UTF-8"?>
<svg xmlns="http://www.w3.org/2000/svg" xmlns:xlink="http://www.w3.org/1999/xlink" width="48" height="48" viewBox="0 0 48 48">
<path fill="none" stroke-width="1.5" stroke-linecap="round" stroke-linejoin="miter" stroke="rgb(25.098041%, 25.098041%, 25.098041%)" stroke-opacity="1" stroke-miterlimit="4" d="M 2.999674 -0.500651 L 12.000326 -0.500651 " transform="matrix(2.4, 0, 0, 2.4, 0, 9.6)"/>
<path fill="none" stroke-width="1.5" stroke-linecap="round" stroke-linejoin="round" stroke="rgb(25.098041%, 25.098041%, 25.098041%)" stroke-opacity="1" stroke-miterlimit="4" d="M 0.999349 -2.499349 L 10 -2.499349 " transform="matrix(2.4, 0, 0, 2.4, 0, 9.6)"/>
<path fill="none" stroke-width="1.5" stroke-linecap="round" stroke-linejoin="round" stroke="rgb(25.098041%, 25.098041%, 25.098041%)" stroke-opacity="1" stroke-miterlimit="4" d="M 5 1.499674 L 14.000651 1.499674 " transform="matrix(2.4, 0, 0, 2.4, 0, 9.6)"/>
<path fill="none" stroke-width="1.5" stroke-linecap="round" stroke-linejoin="round" stroke="rgb(25.098041%, 25.098041%, 25.098041%)" stroke-opacity="1" stroke-miterlimit="4" d="M 5 3.5 L 12.000326 3.5 " transform="matrix(2.4, 0, 0, 2.4, 0, 9.6)"/>
<path fill="none" stroke-width="1.5" stroke-linecap="round" stroke-linejoin="round" stroke="rgb(25.098041%, 25.098041%, 25.098041%)" stroke-opacity="1" stroke-miterlimit="4" d="M 2.999674 5.500326 L 12.000326 5.500326 " transform="matrix(2.4, 0, 0, 2.4, 0, 9.6)"/>
<path fill="none" stroke-width="1.5" stroke-linecap="round" stroke-linejoin="round" stroke="rgb(25.098041%, 25.098041%, 25.098041%)" stroke-opacity="1" stroke-miterlimit="4" d="M 0.999349 7.500651 L 12.000326 7.500651 " transform="matrix(2.4, 0, 0, 2.4, 0, 9.6)"/>
<path fill="none" stroke-width="1.5" stroke-linecap="round" stroke-linejoin="round" stroke="rgb(25.098041%, 25.098041%, 25.098041%)" stroke-opacity="1" stroke-miterlimit="4" d="M 17.000326 -2.499349 L 19.000651 -2.499349 " transform="matrix(2.4, 0, 0, 2.4, 0, 9.6)"/>
<path fill="none" stroke-width="1.5" stroke-linecap="round" stroke-linejoin="round" stroke="rgb(25.098041%, 25.098041%, 25.098041%)" stroke-opacity="1" stroke-miterlimit="4" d="M 17.000326 -0.500651 L 19.000651 -0.500651 " transform="matrix(2.4, 0, 0, 2.4, 0, 9.6)"/>
<path fill="none" stroke-width="1.5" stroke-linecap="round" stroke-linejoin="round" stroke="rgb(25.098041%, 25.098041%, 25.098041%)" stroke-opacity="1" stroke-miterlimit="4" d="M 17.000326 1.499674 L 19.000651 1.499674 " transform="matrix(2.4, 0, 0, 2.4, 0, 9.6)"/>
<path fill="none" stroke-width="1.5" stroke-linecap="round" stroke-linejoin="round" stroke="rgb(25.098041%, 25.098041%, 25.098041%)" stroke-opacity="1" stroke-miterlimit="4" d="M 17.000326 3.5 L 19.000651 3.5 " transform="matrix(2.4, 0, 0, 2.4, 0, 9.6)"/>
<path fill="none" stroke-width="1.5" stroke-linecap="round" stroke-linejoin="round" stroke="rgb(25.098041%, 25.098041%, 25.098041%)" stroke-opacity="1" stroke-miterlimit="4" d="M 17.000326 5.500326 L 19.000651 5.500326 " transform="matrix(2.4, 0, 0, 2.4, 0, 9.6)"/>
<path fill="none" stroke-width="1.5" stroke-linecap="round" stroke-linejoin="round" stroke="rgb(25.098041%, 25.098041%, 25.098041%)" stroke-opacity="1" stroke-miterlimit="4" d="M 17.000326 7.500651 L 19.000651 7.500651 " transform="matrix(2.4, 0, 0, 2.4, 0, 9.6)"/>
<path fill="none" stroke-width="1.5" stroke-linecap="round" stroke-linejoin="round" stroke="rgb(25.098041%, 25.098041%, 25.098041%)" stroke-opacity="1" stroke-miterlimit="4" d="M 17.000326 9.499349 L 19.000651 9.499349 " transform="matrix(2.4, 0, 0, 2.4, 0, 9.6)"/>
<path fill="none" stroke-width="1.5" stroke-linecap="round" stroke-linejoin="round" stroke="rgb(25.098041%, 25.098041%, 25.098041%)" stroke-opacity="1" stroke-miterlimit="4" d="M 17.000326 11.499674 L 19.000651 11.499674 " transform="matrix(2.4, 0, 0, 2.4, 0, 9.6)"/>
<path fill="none" stroke-width="1.5" stroke-linecap="round" stroke-linejoin="round" stroke="rgb(25.098041%, 25.098041%, 25.098041%)" stroke-opacity="1" stroke-miterlimit="4" d="M 17.000326 13.5 L 19.000651 13.5 " transform="matrix(2.4, 0, 0, 2.4, 0, 9.6)"/>
<path fill="none" stroke-width="1.5" stroke-linecap="round" stroke-linejoin="round" stroke="rgb(25.098041%, 25.098041%, 25.098041%)" stroke-opacity="1" stroke-miterlimit="4" d="M 2.999674 9.499349 L 14.000651 9.499349 " transform="matrix(2.4, 0, 0, 2.4, 0, 9.6)"/>
<path fill="none" stroke-width="1.5" stroke-linecap="round" stroke-linejoin="round" stroke="rgb(25.098041%, 25.098041%, 25.098041%)" stroke-opacity="1" stroke-miterlimit="4" d="M 2.999674 11.499674 L 14.000651 11.499674 " transform="matrix(2.4, 0, 0, 2.4, 0, 9.6)"/>
<path fill="none" stroke-width="1.5" stroke-linecap="round" stroke-linejoin="round" stroke="rgb(25.098041%, 25.098041%, 25.098041%)" stroke-opacity="1" stroke-miterlimit="4" d="M 0.999349 13.5 L 12.000326 13.5 " transform="matrix(2.4, 0, 0, 2.4, 0, 9.6)"/>
</svg>
