<?xml version="1.0" encoding="UTF-8"?>
<svg xmlns="http://www.w3.org/2000/svg" xmlns:xlink="http://www.w3.org/1999/xlink" width="48" height="48" viewBox="0 0 48 48">
<path fill-rule="nonzero" fill="rgb(50.196081%, 50.196081%, 37.64706%)" fill-opacity="1" stroke-width="1" stroke-linecap="butt" stroke-linejoin="round" stroke="rgb(25.098041%, 25.098041%, 18.82353%)" stroke-opacity="1" stroke-miterlimit="4" d="M 6.499106 19.999595 L 6.499106 11.500001 L 21.500572 11.500001 L 18.500897 20.500572 L 15.499676 11.500001 Z M 6.499106 19.999595 " transform="matrix(2.526316, 0, 0, 2.526316, -7.578948, -5.052632)"/>
<path fill-rule="nonzero" fill="rgb(97.254902%, 97.254902%, 97.254902%)" fill-opacity="1" stroke-width="1" stroke-linecap="butt" stroke-linejoin="miter" stroke="rgb(50.196081%, 50.196081%, 50.196081%)" stroke-opacity="1" stroke-miterlimit="4" d="M 18.500897 17.500897 L 18.500897 2.499431 L 7.499513 2.499431 L 7.499513 17.500897 Z M 18.500897 17.500897 " transform="matrix(2.526316, 0, 0, 2.526316, -7.578948, -5.052632)"/>
<path fill-rule="nonzero" fill="rgb(97.254902%, 97.254902%, 97.254902%)" fill-opacity="1" stroke-width="1" stroke-linecap="butt" stroke-linejoin="miter" stroke="rgb(50.196081%, 50.196081%, 50.196081%)" stroke-opacity="1" stroke-miterlimit="4" d="M 16.500083 16.50049 L 16.500083 4.498699 L 5.498699 4.498699 L 5.498699 16.50049 Z M 16.500083 16.50049 " transform="matrix(2.526316, 0, 0, 2.526316, -7.578948, -5.052632)"/>
<path fill-rule="nonzero" fill="rgb(75.294119%, 75.294119%, 62.7451%)" fill-opacity="1" stroke-width="1" stroke-linecap="butt" stroke-linejoin="round" stroke="rgb(50.196081%, 50.196081%, 37.64706%)" stroke-opacity="1" stroke-miterlimit="4" d="M 3.499431 11.500001 L 6.499106 20.500572 L 18.500897 20.500572 L 15.499676 11.500001 Z M 3.499431 11.500001 " transform="matrix(2.526316, 0, 0, 2.526316, -7.578948, -5.052632)"/>
<path fill="none" stroke-width="1" stroke-linecap="round" stroke-linejoin="miter" stroke="rgb(50.196081%, 50.196081%, 37.64706%)" stroke-opacity="1" stroke-miterlimit="4" d="M 3.499431 11.500001 L 5.498699 17.500897 " transform="matrix(2.526316, 0, 0, 2.526316, -7.578948, -5.052632)"/>
<path fill="none" stroke-width="1" stroke-linecap="round" stroke-linejoin="miter" stroke="rgb(50.196081%, 50.196081%, 37.64706%)" stroke-opacity="1" stroke-miterlimit="4" d="M 15.499676 11.500001 L 17.50049 17.500897 " transform="matrix(2.526316, 0, 0, 2.526316, -7.578948, -5.052632)"/>
<path fill="none" stroke-width="1" stroke-linecap="round" stroke-linejoin="miter" stroke="rgb(25.098041%, 25.098041%, 18.82353%)" stroke-opacity="1" stroke-miterlimit="4" d="M 21.500572 11.500001 L 19.501304 17.500897 " transform="matrix(2.526316, 0, 0, 2.526316, -7.578948, -5.052632)"/>
</svg>
