<?xml version="1.0" encoding="UTF-8"?>
<svg xmlns="http://www.w3.org/2000/svg" xmlns:xlink="http://www.w3.org/1999/xlink" width="48" height="48" viewBox="0 0 48 48">
<path fill-rule="nonzero" fill="rgb(100%, 94.509804%, 90.980393%)" fill-opacity="1" d="M 45.402344 16.578125 C 45.359375 16.710938 45.328125 16.84375 45.273438 16.96875 C 45.253906 17.007812 45.203125 17.019531 45.167969 17.046875 C 45 17.195312 44.863281 17.195312 44.65625 17.246094 C 44.554688 17.269531 44.480469 17.34375 44.382812 17.363281 C 43.851562 17.46875 43.234375 17.433594 42.703125 17.382812 C 42.25 17.335938 41.789062 17.367188 41.328125 17.339844 C 40.917969 17.3125 40.484375 17.175781 40.097656 17.046875 C 39.898438 16.984375 39.683594 16.953125 39.484375 16.902344 C 38.742188 16.707031 38.007812 16.550781 37.242188 16.476562 C 36.917969 16.445312 36.59375 16.445312 36.277344 16.40625 C 35.914062 16.363281 35.40625 16.191406 35.039062 16.097656 C 34.820312 16.039062 34.585938 16.015625 34.378906 15.910156 C 34.15625 15.796875 33.980469 15.640625 33.773438 15.507812 C 33.460938 15.304688 33.15625 15.09375 32.851562 14.875 C 32.773438 14.820312 32.675781 14.773438 32.609375 14.703125 C 32.398438 14.480469 32.164062 14.265625 31.960938 14.03125 C 31.695312 13.734375 31.46875 13.402344 31.15625 13.148438 C 30.820312 12.875 30.398438 12.640625 29.984375 12.5 C 29.796875 12.4375 29.605469 12.40625 29.421875 12.335938 C 28.339844 11.9375 27.359375 11.4375 26.183594 11.382812 C 25.640625 11.351562 25.070312 11.320312 24.535156 11.414062 C 24.289062 11.457031 24.019531 11.59375 23.785156 11.664062 C 23.292969 11.8125 22.828125 12.003906 22.355469 12.203125 C 21.488281 12.5625 20.65625 13.238281 19.6875 13.285156 C 19.386719 13.304688 19.046875 13.3125 18.75 13.261719 C 18.484375 13.214844 18.226562 13.140625 17.957031 13.097656 C 17.152344 12.976562 16.335938 12.867188 15.53125 12.710938 C 15.074219 12.628906 14.648438 12.460938 14.199219 12.355469 C 13.820312 12.265625 13.414062 12.234375 13.03125 12.191406 C 12.335938 12.113281 11.582031 12.097656 10.882812 12.140625 C 10.691406 12.15625 10.5 12.191406 10.308594 12.203125 C 9.300781 12.257812 8.277344 12.144531 7.265625 12.210938 C 6.769531 12.238281 6.277344 12.347656 5.773438 12.367188 C 5.304688 12.375 4.621094 12.308594 4.175781 12.429688 C 3.828125 12.53125 3.453125 12.664062 3.140625 12.851562 C 3.050781 12.90625 2.980469 12.980469 2.890625 13.03125 C 2.675781 13.15625 2.4375 13.246094 2.222656 13.378906 C 2.070312 13.472656 1.597656 13.550781 1.507812 13.695312 C 1.492188 13.734375 1.523438 13.8125 1.5 13.851562 C 1.460938 13.917969 1.46875 14.066406 1.492188 14.152344 C 1.519531 14.257812 1.601562 14.351562 1.648438 14.457031 C 2.070312 15.390625 3.003906 15.664062 3.910156 15.960938 C 4.1875 16.054688 4.445312 16.175781 4.710938 16.285156 C 4.90625 16.367188 5.152344 16.410156 5.363281 16.457031 C 5.628906 16.519531 5.910156 16.503906 6.183594 16.53125 C 6.59375 16.574219 7.023438 16.613281 7.433594 16.664062 C 8.011719 16.734375 8.59375 16.742188 9.171875 16.800781 C 10.023438 16.882812 10.867188 17.035156 11.699219 17.203125 C 11.867188 17.234375 12.042969 17.222656 12.210938 17.269531 C 12.351562 17.304688 12.476562 17.367188 12.617188 17.40625 C 12.839844 17.46875 13.070312 17.464844 13.289062 17.515625 C 13.589844 17.585938 14.347656 17.808594 14.511719 18.089844 C 14.609375 18.253906 14.59375 18.566406 14.59375 18.753906 C 14.59375 19.128906 14.625 19.519531 14.652344 19.894531 C 14.65625 20 14.703125 20.09375 14.714844 20.203125 C 14.726562 20.347656 14.691406 20.507812 14.734375 20.652344 C 14.886719 21.21875 15.332031 21.65625 15.332031 22.261719 C 15.332031 22.316406 15.347656 22.398438 15.324219 22.449219 C 15.109375 22.941406 14.492188 23.164062 14.082031 23.433594 C 13.867188 23.570312 13.640625 23.703125 13.46875 23.882812 C 13.332031 24.027344 13.199219 24.167969 13.039062 24.296875 C 12.816406 24.472656 12.554688 24.601562 12.371094 24.835938 C 12.257812 24.980469 12.101562 25.152344 12.039062 25.332031 C 11.929688 25.601562 11.804688 26.46875 11.867188 26.746094 C 11.890625 26.839844 11.984375 26.949219 12.039062 27.027344 C 12.203125 27.28125 12.210938 27.476562 12.210938 27.773438 C 12.210938 27.84375 12.234375 27.957031 12.207031 28.023438 C 11.980469 28.523438 11.226562 28.683594 10.84375 29.0625 C 10.660156 29.246094 10.503906 29.804688 10.484375 30.046875 C 10.472656 30.191406 10.492188 30.34375 10.476562 30.492188 C 10.457031 30.671875 10.410156 30.851562 10.4375 31.039062 C 10.449219 31.125 10.503906 31.199219 10.523438 31.285156 C 10.597656 31.570312 10.640625 31.867188 10.753906 32.140625 C 11.082031 32.960938 11.808594 33.484375 12.488281 33.984375 C 12.734375 34.167969 12.933594 34.40625 13.171875 34.59375 C 13.355469 34.738281 13.65625 34.917969 13.859375 35.019531 C 14.113281 35.148438 14.445312 35.132812 14.734375 35.257812 C 15 35.382812 15.234375 35.574219 15.484375 35.726562 C 15.652344 35.839844 15.851562 35.902344 16.027344 36.003906 C 16.199219 36.101562 16.363281 36.214844 16.546875 36.304688 C 16.753906 36.398438 16.953125 36.332031 17.171875 36.371094 C 17.582031 36.445312 17.992188 36.578125 18.417969 36.535156 C 18.519531 36.523438 18.613281 36.402344 18.707031 36.355469 C 18.824219 36.300781 18.976562 36.265625 19.078125 36.183594 C 19.292969 36.007812 19.496094 35.8125 19.730469 35.664062 C 20.070312 35.441406 20.609375 35.277344 21.007812 35.226562 C 21.324219 35.1875 21.648438 35.253906 21.960938 35.226562 C 23.152344 35.125 24.347656 35.210938 25.542969 35.175781 C 26.105469 35.15625 26.65625 35.085938 27.210938 35 C 27.453125 34.96875 27.710938 34.960938 27.953125 34.914062 C 28.0625 34.882812 28.175781 34.828125 28.289062 34.789062 C 28.59375 34.679688 29.105469 34.539062 29.421875 34.480469 C 29.691406 34.433594 29.972656 34.339844 30.242188 34.320312 C 30.746094 34.28125 31.339844 34.191406 31.820312 34.039062 C 32.160156 33.929688 32.535156 33.816406 32.851562 33.648438 C 33.144531 33.488281 33.390625 33.265625 33.71875 33.167969 C 33.886719 33.117188 34.058594 33.097656 34.226562 33.066406 C 34.949219 32.90625 35.714844 32.765625 36.375 32.421875 C 36.5 32.359375 36.648438 32.289062 36.757812 32.195312 C 36.851562 32.109375 36.9375 32.011719 37.046875 31.945312 C 37.292969 31.796875 37.574219 31.707031 37.832031 31.585938 C 38.390625 31.328125 38.953125 31.0625 39.484375 30.753906 C 40.167969 30.355469 40.828125 29.839844 41.617188 29.644531 C 42.03125 29.539062 42.464844 29.480469 42.890625 29.441406 C 43.144531 29.414062 43.398438 29.339844 43.648438 29.320312 C 44.652344 29.242188 45.445312 29.382812 46.316406 29.882812 C 46.640625 30.074219 47.246094 30.320312 47.511719 29.921875 C 47.714844 29.617188 47.703125 29.207031 47.726562 28.855469 C 47.765625 28.238281 47.792969 27.585938 47.757812 26.960938 C 47.746094 26.804688 47.714844 26.648438 47.703125 26.488281 C 47.675781 25.648438 47.667969 24.816406 47.628906 23.976562 C 47.617188 23.71875 47.625 23.460938 47.597656 23.203125 C 47.574219 22.949219 47.507812 22.707031 47.480469 22.457031 C 47.398438 21.695312 47.269531 20.945312 47.105469 20.195312 C 46.976562 19.597656 46.921875 18.929688 46.667969 18.371094 C 46.519531 18.039062 46.328125 17.664062 46.085938 17.382812 C 46.015625 17.292969 45.558594 16.9375 45.558594 16.925781 C 45.496094 16.8125 45.453125 16.695312 45.402344 16.578125 Z M 45.402344 16.578125 "/>
<path fill="none" stroke-width="0.7" stroke-linecap="round" stroke-linejoin="miter" stroke="rgb(0%, 0%, 0%)" stroke-opacity="1" stroke-miterlimit="4" d="M 23.064513 8.999667 C 21.656576 9.02811 19.066214 8.999667 17.564821 8.499879 C 16.065459 8.000092 15.065884 6.998486 14.06631 6.498698 C 13.066735 5.998911 12.270326 6.025323 11.565341 5.998911 C 10.565767 5.998911 8.979043 6.482445 8.01807 7.248379 C 7.918519 7.317456 6.065649 8.999667 6.065649 9.499454 C 6.065649 9.999241 5.066074 11.498603 6.065649 11.998391 C 7.567043 13.002029 9.505242 10.129267 10.565767 9.499454 " transform="matrix(1.922693, 0, 0, 1.922693, 2.978245, -0.72547)"/>
<path fill="none" stroke-width="0.7" stroke-linecap="butt" stroke-linejoin="round" stroke="rgb(0%, 0%, 0%)" stroke-opacity="1" stroke-miterlimit="4" d="M 8.566617 6.998486 C 7.690974 6.707959 4.0665 6.498698 2.06735 6.498698 C 0.0641379 6.498698 -1.935011 6.998486 -0.935437 8.499879 C 0.0641379 9.499454 4.0665 9.499454 6.065649 9.499454 " transform="matrix(1.922693, 0, 0, 1.922693, 2.978245, -0.72547)"/>
<path fill="none" stroke-width="0.7" stroke-linecap="round" stroke-linejoin="round" stroke="rgb(0%, 0%, 0%)" stroke-opacity="1" stroke-miterlimit="4" d="M 6.065649 11.998391 C 5.456152 11.557521 6.486202 13.69076 7.067255 14.001603 C 8.06683 14.501391 10.065979 14.501391 11.42922 14.346985 C 12.06716 13.501816 12.06716 13.002029 11.065554 11.998391 C 10.065979 10.998816 9.566192 11.998391 8.566617 11.498603 " transform="matrix(1.922693, 0, 0, 1.922693, 2.978245, -0.72547)"/>
<path fill="none" stroke-width="0.7" stroke-linecap="round" stroke-linejoin="round" stroke="rgb(0%, 0%, 0%)" stroke-opacity="1" stroke-miterlimit="4" d="M 6.065649 13.002029 C 5.876705 12.825275 4.852751 13.115801 4.651617 13.37179 C 4.511432 13.566829 4.482989 13.790311 4.401723 13.991445 C 4.314362 14.67205 4.6313 15.019463 5.013251 15.460332 C 5.30581 15.799619 5.653223 16.128747 6.055491 16.338007 C 6.506518 16.567585 7.071319 16.762623 7.571106 16.835763 C 7.971342 16.858111 8.702738 16.931251 9.066405 17.000327 C 10.065979 16.50054 10.421519 16.959694 11.065554 15.500965 C 10.992414 14.871152 10.947718 14.814266 10.565767 14.501391 " transform="matrix(1.922693, 0, 0, 1.922693, 2.978245, -0.72547)"/>
<path fill="none" stroke-width="0.7" stroke-linecap="round" stroke-linejoin="round" stroke="rgb(0%, 0%, 0%)" stroke-opacity="1" stroke-miterlimit="4" d="M 4.444388 15.257167 C 3.818638 15.269356 3.879587 15.635055 3.668295 15.915423 C 3.44075 17.268506 4.060405 17.953174 4.982777 18.477341 C 5.614621 18.88164 6.232245 19.101059 6.898628 19.281877 C 8.63163 19.503327 9.423976 19.170136 9.167987 17.506209 C 9.155798 17.479798 9.139544 17.38431 9.080626 17.426975 C 9.058278 17.441196 9.033898 17.563096 9.066405 17.500115 " transform="matrix(1.922693, 0, 0, 1.922693, 2.978245, -0.72547)"/>
<path fill="none" stroke-width="0.7" stroke-linecap="round" stroke-linejoin="miter" stroke="rgb(0%, 0%, 0%)" stroke-opacity="1" stroke-miterlimit="4" d="M 23.064513 16.50054 C 22.064938 15.500965 20.707792 16.041386 20.565576 16.000753 C 17.564821 17.000327 18.06664 17.500115 16.065459 17.999902 C 14.566097 18.499689 13.566522 18.499689 12.06716 18.499689 C 11.246371 18.591114 9.783579 17.993807 9.066405 17.999902 " transform="matrix(1.922693, 0, 0, 1.922693, 2.978245, -0.72547)"/>
<path fill="none" stroke-width="0.7" stroke-linecap="round" stroke-linejoin="round" stroke="rgb(0%, 0%, 0%)" stroke-opacity="1" stroke-miterlimit="4" d="M 15.565672 11.998391 C 15.368601 12.154828 14.06631 12.498178 13.566522 12.498178 C 12.06716 12.498178 12.117952 12.398627 11.065554 11.998391 " transform="matrix(1.922693, 0, 0, 1.922693, 2.978245, -0.72547)"/>
<path fill="none" stroke-width="1.4" stroke-linecap="butt" stroke-linejoin="miter" stroke="rgb(0%, 0%, 0%)" stroke-opacity="1" stroke-miterlimit="4" d="M 22.064938 8.999667 L 22.064938 16.000753 " transform="matrix(1.922693, 0, 0, 1.922693, 2.978245, -0.72547)"/>
</svg>
