<?xml version="1.0" encoding="UTF-8"?>
<svg xmlns="http://www.w3.org/2000/svg" xmlns:xlink="http://www.w3.org/1999/xlink" width="48" height="48" viewBox="0 0 48 48">
<path fill="none" stroke-width="2" stroke-linecap="butt" stroke-linejoin="bevel" stroke="rgb(37.64706%, 37.64706%, 37.64706%)" stroke-opacity="1" stroke-miterlimit="4" d="M 20.999996 11.999998 C 20.999996 16.294919 17.966793 19.988277 13.755857 20.828121 C 9.542967 21.664058 5.328124 19.412105 3.683593 15.443356 C 2.041015 11.478513 3.429687 6.902342 6.999999 4.517577 C 10.57031 2.130859 15.328122 2.599609 18.363278 5.634764 " transform="matrix(2, 0, 0, 2, -3, 2)"/>
<path fill="none" stroke-width="2" stroke-linecap="butt" stroke-linejoin="bevel" stroke="rgb(37.64706%, 37.64706%, 37.64706%)" stroke-opacity="1" stroke-miterlimit="4" d="M 16.999997 11.999998 C 16.999997 14.384763 15.31445 16.437497 12.974607 16.904293 C 10.636717 17.37109 8.29492 16.117184 7.380858 13.91406 C 6.468749 11.710935 7.240233 9.167967 9.222654 7.843748 C 11.205076 6.515624 13.849607 6.779295 15.535153 8.464842 " transform="matrix(2, 0, 0, 2, -3, 2)"/>
<path fill-rule="nonzero" fill="rgb(97.254902%, 97.254902%, 97.254902%)" fill-opacity="1" stroke-width="1" stroke-linecap="butt" stroke-linejoin="miter" stroke="rgb(37.64706%, 37.64706%, 37.64706%)" stroke-opacity="1" stroke-miterlimit="4" d="M 14.499997 7.999998 L 16.999997 1.5 L 21.999996 12.499998 L 10.999998 12.499998 Z M 14.499997 7.999998 " transform="matrix(2, 0, 0, 2, 0, 0)"/>
<path fill="none" stroke-width="4" stroke-linecap="butt" stroke-linejoin="bevel" stroke="rgb(97.254902%, 97.254902%, 97.254902%)" stroke-opacity="1" stroke-miterlimit="4" d="M 18.999713 11.999998 C 18.999713 15.339841 16.640338 18.21484 13.366901 18.865231 C 10.089558 19.517574 6.810262 17.763668 5.532918 14.679685 C 4.253622 11.593748 5.3337 8.035155 8.111043 6.179686 C 10.888386 4.324218 14.589557 4.687499 16.948932 7.05078 " transform="matrix(2, 0, 0, 2, -2.999432, 2)"/>
</svg>
