<?xml version="1.0" encoding="UTF-8"?>
<svg xmlns="http://www.w3.org/2000/svg" xmlns:xlink="http://www.w3.org/1999/xlink" width="48" height="48" viewBox="0 0 48 48">
<path fill="none" stroke-width="2" stroke-linecap="butt" stroke-linejoin="bevel" stroke="rgb(37.64706%, 37.64706%, 37.64706%)" stroke-opacity="1" stroke-miterlimit="4" d="M 20.999995 11.999998 C 20.999995 16.294919 17.968746 19.988277 13.755856 20.828121 C 9.544919 21.664058 5.328123 19.412105 3.685545 15.443356 C 2.042968 11.478513 3.429686 6.902342 6.999998 4.517577 C 10.57031 2.130859 15.328121 2.599609 18.363277 5.634764 " transform="matrix(-2, 0, 0, 2, 48.999998, 2)"/>
<path fill="none" stroke-width="2" stroke-linecap="butt" stroke-linejoin="bevel" stroke="rgb(37.64706%, 37.64706%, 37.64706%)" stroke-opacity="1" stroke-miterlimit="4" d="M 16.999996 11.999998 C 16.999996 14.384763 15.314449 16.437497 12.976559 16.904293 C 10.636716 17.37109 8.292966 16.117184 7.380857 13.91406 C 6.466795 11.710935 7.238279 9.167967 9.220701 7.843748 C 11.207028 6.515624 13.847653 6.779295 15.535153 8.464842 " transform="matrix(-2, 0, 0, 2, 48.999998, 2)"/>
<path fill-rule="nonzero" fill="rgb(97.254902%, 97.254902%, 97.254902%)" fill-opacity="1" stroke-width="1" stroke-linecap="butt" stroke-linejoin="miter" stroke="rgb(37.64706%, 37.64706%, 37.64706%)" stroke-opacity="1" stroke-miterlimit="4" d="M 8.499998 7.999998 L 5.999999 1.5 L 1 12.499998 L 11.999998 12.499998 Z M 8.499998 7.999998 " transform="matrix(2, 0, 0, 2, 0, 0)"/>
<path fill="none" stroke-width="4" stroke-linecap="butt" stroke-linejoin="bevel" stroke="rgb(97.254902%, 97.254902%, 97.254902%)" stroke-opacity="1" stroke-miterlimit="4" d="M 19.001665 11.999998 C 19.001665 15.339841 16.640337 18.21484 13.364947 18.865231 C 10.089557 19.517574 6.812214 17.763668 5.530964 14.679685 C 4.253621 11.593748 5.335652 8.035155 8.109089 6.179686 C 10.886432 4.324218 14.587603 4.687499 16.950884 7.05078 " transform="matrix(-2, 0, 0, 2, 48.999431, 2)"/>
</svg>
