<?xml version="1.0" encoding="UTF-8"?>
<svg xmlns="http://www.w3.org/2000/svg" xmlns:xlink="http://www.w3.org/1999/xlink" width="48" height="48" viewBox="0 0 48 48">
<path fill-rule="nonzero" fill="rgb(50.196081%, 50.196081%, 37.64706%)" fill-opacity="1" stroke-width="1" stroke-linecap="butt" stroke-linejoin="round" stroke="rgb(25.098041%, 25.098041%, 18.82353%)" stroke-opacity="1" stroke-miterlimit="4" d="M 2.999999 17.499997 L 7.499999 8.499998 L 23.499996 8.499998 L 21.499996 23.499996 L 17.499997 12.499998 Z M 2.999999 17.499997 " transform="matrix(2, 0, 0, 2, 0, 0)"/>
<path fill-rule="nonzero" fill="rgb(97.254902%, 97.254902%, 97.254902%)" fill-opacity="1" stroke-width="1" stroke-linecap="butt" stroke-linejoin="miter" stroke="rgb(50.196081%, 50.196081%, 50.196081%)" stroke-opacity="1" stroke-miterlimit="4" d="M 20.499996 21.999996 L 20.499996 1.5 L 4.499999 1.5 L 4.499999 21.999996 Z M 20.499996 21.999996 " transform="matrix(2, 0, 0, 2, 0, 0)"/>
<path fill-rule="nonzero" fill="rgb(75.294119%, 75.294119%, 62.7451%)" fill-opacity="1" stroke-width="1" stroke-linecap="butt" stroke-linejoin="round" stroke="rgb(50.196081%, 50.196081%, 37.64706%)" stroke-opacity="1" stroke-miterlimit="4" d="M 0.5 12.499998 L 4.499999 23.499996 L 21.499996 23.499996 L 17.499997 12.499998 Z M 0.5 12.499998 " transform="matrix(2, 0, 0, 2, 0, 0)"/>
<path fill-rule="nonzero" fill="rgb(0%, 50.196081%, 0%)" fill-opacity="1" stroke-width="1" stroke-linecap="butt" stroke-linejoin="miter" stroke="rgb(0%, 37.64706%, 0%)" stroke-opacity="1" stroke-miterlimit="4" d="M 10.499998 10.499998 L 13.499997 10.499998 L 13.499997 5.499999 L 16.499997 5.499999 L 11.999998 0.5 L 7.499999 5.499999 L 10.499998 5.499999 Z M 10.499998 10.499998 " transform="matrix(2, 0, 0, 2, 0, 0)"/>
</svg>
