<?xml version="1.0" encoding="UTF-8"?>
<svg xmlns="http://www.w3.org/2000/svg" xmlns:xlink="http://www.w3.org/1999/xlink" width="48" height="48" viewBox="0 0 48 48">
<path fill-rule="nonzero" fill="rgb(50.196081%, 50.196081%, 37.64706%)" fill-opacity="1" stroke-width="1" stroke-linecap="butt" stroke-linejoin="round" stroke="rgb(25.098041%, 25.098041%, 18.82353%)" stroke-opacity="1" stroke-miterlimit="4" d="M 20.999996 17.499997 L 16.499997 8.499998 L 0.5 8.499998 L 2.5 23.499996 L 6.499999 12.499998 Z M 20.999996 17.499997 " transform="matrix(2, 0, 0, 2, 0, 0)"/>
<path fill-rule="nonzero" fill="rgb(97.254902%, 97.254902%, 97.254902%)" fill-opacity="1" stroke-width="1" stroke-linecap="butt" stroke-linejoin="miter" stroke="rgb(50.196081%, 50.196081%, 50.196081%)" stroke-opacity="1" stroke-miterlimit="4" d="M 3.499999 21.999996 L 3.499999 1.5 L 19.499996 1.5 L 19.499996 21.999996 Z M 3.499999 21.999996 " transform="matrix(2, 0, 0, 2, 0, 0)"/>
<path fill-rule="nonzero" fill="rgb(75.294119%, 75.294119%, 62.7451%)" fill-opacity="1" stroke-width="1" stroke-linecap="butt" stroke-linejoin="round" stroke="rgb(50.196081%, 50.196081%, 37.64706%)" stroke-opacity="1" stroke-miterlimit="4" d="M 23.499996 12.499998 L 19.499996 23.499996 L 2.5 23.499996 L 6.499999 12.499998 Z M 23.499996 12.499998 " transform="matrix(2, 0, 0, 2, 0, 0)"/>
<path fill-rule="nonzero" fill="rgb(50.196081%, 0%, 0%)" fill-opacity="1" stroke-width="1" stroke-linecap="butt" stroke-linejoin="miter" stroke="rgb(37.64706%, 0%, 0%)" stroke-opacity="1" stroke-miterlimit="4" d="M 13.499997 0.5 L 10.499998 0.5 L 10.499998 5.499999 L 7.499999 5.499999 L 11.999998 10.499998 L 16.499997 5.499999 L 13.499997 5.499999 Z M 13.499997 0.5 " transform="matrix(2, 0, 0, 2, 0, 0)"/>
</svg>
