<?xml version="1.0" encoding="UTF-8"?>
<svg xmlns="http://www.w3.org/2000/svg" xmlns:xlink="http://www.w3.org/1999/xlink" width="48" height="48" viewBox="0 0 48 48">
<path fill-rule="nonzero" fill="rgb(100%, 100%, 100%)" fill-opacity="0.890196" stroke-width="1" stroke-linecap="butt" stroke-linejoin="miter" stroke="rgb(50.196081%, 50.196081%, 50.196081%)" stroke-opacity="1" stroke-miterlimit="4" d="M 2.5 0.5 L 2.5 23.499996 L 21.499996 23.499996 L 21.499996 0.5 Z M 2.5 0.5 " transform="matrix(2, 0, 0, 2, 0, 0)"/>
<path fill-rule="nonzero" fill="rgb(0%, 0%, 0%)" fill-opacity="1" d="M 17.5 14.28125 L 11.53125 14.28125 L 10.21875 18 L 8.28125 18 L 13.71875 3.78125 L 15.34375 3.78125 L 20.78125 18 L 18.875 18 Z M 12.125 12.75 L 16.9375 12.75 L 14.53125 6.09375 Z M 8 -0.554688 "/>
<path fill-rule="nonzero" fill="rgb(0%, 0%, 0%)" fill-opacity="1" d="M 29.65625 42 L 29.65625 27.78125 L 34.3125 27.78125 C 35.851562 27.78125 37.007812 28.109375 37.78125 28.75 C 38.546875 29.375 38.9375 30.3125 38.9375 31.5625 C 38.9375 32.234375 38.75 32.828125 38.375 33.34375 C 38 33.84375 37.484375 34.242188 36.84375 34.53125 C 37.609375 34.742188 38.21875 35.148438 38.65625 35.75 C 39.109375 36.359375 39.34375 37.078125 39.34375 37.90625 C 39.34375 39.179688 38.921875 40.179688 38.09375 40.90625 C 37.257812 41.640625 36.09375 42 34.59375 42 Z M 31.53125 35.34375 L 31.53125 40.46875 L 34.625 40.46875 C 35.5 40.46875 36.1875 40.242188 36.6875 39.78125 C 37.1875 39.328125 37.4375 38.703125 37.4375 37.90625 C 37.4375 36.203125 36.507812 35.34375 34.65625 35.34375 Z M 31.53125 33.84375 L 34.34375 33.84375 C 35.171875 33.84375 35.828125 33.648438 36.3125 33.25 C 36.8125 32.835938 37.0625 32.273438 37.0625 31.5625 C 37.0625 30.773438 36.828125 30.203125 36.375 29.84375 C 35.914062 29.492188 35.226562 29.3125 34.3125 29.3125 L 31.53125 29.3125 Z M 28 23.445312 "/>
<path fill-rule="nonzero" fill="rgb(50.196081%, 0%, 0%)" fill-opacity="1" d="M 12 20 C 12 20 9.9375 30.9375 13 34 C 16.0625 37.0625 22 36 22 36 L 20 41 L 29 34 L 20 27 L 22 32 C 22 32 18.121094 33.121094 16 31 C 13.878906 28.878906 16 20 16 20 Z M 12 20 "/>
</svg>
