<?xml version="1.0" encoding="UTF-8"?>
<svg xmlns="http://www.w3.org/2000/svg" xmlns:xlink="http://www.w3.org/1999/xlink" width="32" height="32" viewBox="0 0 32 32">
<path fill-rule="nonzero" fill="rgb(100%, 94.509804%, 90.980393%)" fill-opacity="1" d="M 30.269531 11.050781 C 30.238281 11.140625 30.21875 11.230469 30.179688 11.3125 C 30.167969 11.339844 30.132812 11.347656 30.113281 11.363281 C 30 11.464844 29.910156 11.460938 29.769531 11.496094 C 29.703125 11.511719 29.652344 11.5625 29.585938 11.574219 C 29.234375 11.648438 28.820312 11.621094 28.46875 11.585938 C 28.164062 11.558594 27.859375 11.578125 27.554688 11.558594 C 27.277344 11.542969 26.992188 11.449219 26.730469 11.363281 C 26.597656 11.320312 26.457031 11.304688 26.320312 11.269531 C 25.828125 11.140625 25.335938 11.035156 24.828125 10.984375 C 24.613281 10.960938 24.394531 10.960938 24.183594 10.9375 C 23.945312 10.910156 23.601562 10.792969 23.359375 10.730469 C 23.214844 10.695312 23.054688 10.679688 22.917969 10.609375 C 22.773438 10.53125 22.652344 10.425781 22.515625 10.339844 C 22.304688 10.203125 22.105469 10.0625 21.898438 9.917969 C 21.847656 9.878906 21.785156 9.851562 21.742188 9.804688 C 21.597656 9.652344 21.445312 9.507812 21.304688 9.351562 C 21.128906 9.15625 20.980469 8.933594 20.773438 8.765625 C 20.546875 8.585938 20.265625 8.425781 19.988281 8.332031 C 19.867188 8.292969 19.738281 8.269531 19.613281 8.226562 C 18.890625 7.960938 18.242188 7.625 17.457031 7.585938 C 17.09375 7.570312 16.714844 7.546875 16.355469 7.609375 C 16.191406 7.640625 16.011719 7.726562 15.855469 7.773438 C 15.527344 7.875 15.21875 8.003906 14.902344 8.132812 C 14.324219 8.375 13.773438 8.824219 13.125 8.859375 C 12.925781 8.867188 12.699219 8.875 12.5 8.839844 C 12.324219 8.808594 12.152344 8.757812 11.972656 8.730469 C 11.433594 8.652344 10.890625 8.578125 10.351562 8.476562 C 10.050781 8.417969 9.765625 8.304688 9.464844 8.238281 C 9.210938 8.179688 8.945312 8.15625 8.6875 8.128906 C 8.226562 8.074219 7.722656 8.066406 7.253906 8.09375 C 7.128906 8.101562 7 8.128906 6.871094 8.132812 C 6.199219 8.171875 5.519531 8.097656 4.84375 8.140625 C 4.511719 8.160156 4.183594 8.234375 3.851562 8.242188 C 3.535156 8.25 3.082031 8.203125 2.785156 8.289062 C 2.554688 8.351562 2.300781 8.445312 2.09375 8.566406 C 2.035156 8.601562 1.988281 8.652344 1.929688 8.6875 C 1.785156 8.773438 1.625 8.832031 1.480469 8.921875 C 1.382812 8.980469 1.0625 9.035156 1.007812 9.132812 C 0.992188 9.15625 1.015625 9.210938 1 9.234375 C 0.972656 9.277344 0.980469 9.378906 0.992188 9.433594 C 1.011719 9.503906 1.066406 9.570312 1.097656 9.636719 C 1.378906 10.257812 2.003906 10.441406 2.605469 10.640625 C 2.789062 10.703125 2.964844 10.785156 3.140625 10.859375 C 3.273438 10.914062 3.433594 10.9375 3.574219 10.972656 C 3.753906 11.011719 3.941406 11.003906 4.121094 11.023438 C 4.398438 11.050781 4.679688 11.074219 4.957031 11.109375 C 5.339844 11.15625 5.726562 11.160156 6.113281 11.199219 C 6.683594 11.253906 7.242188 11.355469 7.800781 11.46875 C 7.914062 11.488281 8.03125 11.484375 8.140625 11.511719 C 8.234375 11.539062 8.320312 11.578125 8.410156 11.605469 C 8.558594 11.644531 8.710938 11.644531 8.859375 11.679688 C 9.058594 11.726562 9.566406 11.871094 9.675781 12.058594 C 9.738281 12.171875 9.726562 12.378906 9.726562 12.503906 C 9.726562 12.753906 9.75 13.011719 9.769531 13.261719 C 9.773438 13.332031 9.800781 13.398438 9.808594 13.46875 C 9.816406 13.566406 9.792969 13.671875 9.820312 13.769531 C 9.925781 14.148438 10.222656 14.4375 10.222656 14.839844 C 10.222656 14.878906 10.230469 14.929688 10.214844 14.964844 C 10.070312 15.296875 9.660156 15.445312 9.386719 15.621094 C 9.246094 15.710938 9.09375 15.804688 8.980469 15.921875 C 8.886719 16.019531 8.800781 16.113281 8.695312 16.195312 C 8.542969 16.316406 8.367188 16.402344 8.246094 16.554688 C 8.171875 16.652344 8.070312 16.769531 8.023438 16.886719 C 7.953125 17.066406 7.867188 17.648438 7.914062 17.832031 C 7.925781 17.894531 7.988281 17.964844 8.023438 18.019531 C 8.132812 18.1875 8.140625 18.320312 8.140625 18.515625 C 8.140625 18.5625 8.15625 18.636719 8.136719 18.679688 C 7.988281 19.015625 7.484375 19.121094 7.226562 19.375 C 7.105469 19.496094 7.003906 19.867188 6.988281 20.03125 C 6.980469 20.128906 6.996094 20.230469 6.984375 20.328125 C 6.972656 20.445312 6.941406 20.570312 6.957031 20.691406 C 6.964844 20.75 7.003906 20.800781 7.015625 20.855469 C 7.066406 21.046875 7.09375 21.242188 7.167969 21.425781 C 7.386719 21.976562 7.871094 22.320312 8.328125 22.65625 C 8.488281 22.777344 8.621094 22.9375 8.78125 23.0625 C 8.902344 23.160156 9.101562 23.277344 9.242188 23.347656 C 9.40625 23.429688 9.628906 23.421875 9.820312 23.507812 C 10 23.589844 10.15625 23.714844 10.320312 23.820312 C 10.4375 23.894531 10.566406 23.933594 10.683594 24.003906 C 10.800781 24.070312 10.910156 24.144531 11.03125 24.203125 C 11.167969 24.265625 11.304688 24.222656 11.445312 24.246094 C 11.722656 24.296875 11.992188 24.382812 12.277344 24.355469 C 12.347656 24.347656 12.410156 24.269531 12.472656 24.238281 C 12.550781 24.199219 12.648438 24.179688 12.71875 24.121094 C 12.863281 24.007812 12.996094 23.875 13.152344 23.773438 C 13.378906 23.628906 13.742188 23.519531 14.007812 23.484375 C 14.214844 23.457031 14.429688 23.503906 14.640625 23.484375 C 15.433594 23.417969 16.230469 23.476562 17.027344 23.449219 C 17.402344 23.4375 17.773438 23.390625 18.140625 23.335938 C 18.304688 23.3125 18.472656 23.308594 18.632812 23.273438 C 18.710938 23.257812 18.785156 23.21875 18.859375 23.195312 C 19.0625 23.121094 19.402344 23.023438 19.613281 22.988281 C 19.792969 22.957031 19.980469 22.894531 20.160156 22.878906 C 20.496094 22.851562 20.894531 22.796875 21.214844 22.691406 C 21.441406 22.621094 21.6875 22.542969 21.898438 22.429688 C 22.097656 22.324219 22.257812 22.175781 22.476562 22.109375 C 22.589844 22.078125 22.707031 22.066406 22.820312 22.042969 C 23.300781 21.9375 23.808594 21.84375 24.25 21.617188 C 24.335938 21.570312 24.429688 21.523438 24.503906 21.460938 C 24.570312 21.40625 24.625 21.339844 24.695312 21.296875 C 24.863281 21.199219 25.050781 21.136719 25.222656 21.058594 C 25.59375 20.882812 25.96875 20.710938 26.320312 20.503906 C 26.777344 20.238281 27.21875 19.894531 27.742188 19.761719 C 28.023438 19.695312 28.308594 19.652344 28.59375 19.625 C 28.761719 19.609375 28.929688 19.558594 29.101562 19.546875 C 29.769531 19.496094 30.296875 19.585938 30.878906 19.921875 C 31.09375 20.050781 31.496094 20.210938 31.671875 19.945312 C 31.808594 19.746094 31.800781 19.472656 31.816406 19.238281 C 31.84375 18.824219 31.863281 18.390625 31.839844 17.972656 C 31.832031 17.871094 31.808594 17.765625 31.804688 17.660156 C 31.785156 17.101562 31.777344 16.542969 31.753906 15.984375 C 31.746094 15.8125 31.75 15.640625 31.730469 15.46875 C 31.714844 15.300781 31.671875 15.136719 31.652344 14.972656 C 31.601562 14.460938 31.511719 13.960938 31.402344 13.460938 C 31.316406 13.066406 31.28125 12.621094 31.113281 12.25 C 31.011719 12.027344 30.886719 11.773438 30.726562 11.585938 C 30.679688 11.53125 30.375 11.289062 30.371094 11.285156 C 30.332031 11.210938 30.304688 11.128906 30.269531 11.050781 Z M 30.269531 11.050781 "/>
<path fill="none" stroke-width="0.7" stroke-linecap="round" stroke-linejoin="miter" stroke="rgb(0%, 0%, 0%)" stroke-opacity="1" stroke-miterlimit="4" d="M 23.065525 8.99865 C 21.65454 9.026077 19.067227 8.99865 17.564818 8.498862 C 16.065456 7.999075 15.065882 6.999501 14.066307 6.499713 C 13.066733 5.999926 12.27134 6.027354 11.567371 5.999926 C 10.564749 5.999926 8.980058 6.481429 8.017053 7.246347 C 7.916486 7.316439 6.066664 8.99865 6.066664 9.501484 C 6.066664 10.001272 5.067089 11.500633 6.066664 12.000421 C 7.566026 12.999995 9.504225 10.129266 10.564749 9.501484 " transform="matrix(1.281795, 0, 0, 1.281795, 1.985497, -0.483647)"/>
<path fill="none" stroke-width="0.7" stroke-linecap="butt" stroke-linejoin="round" stroke="rgb(0%, 0%, 0%)" stroke-opacity="1" stroke-miterlimit="4" d="M 8.5656 6.999501 C 7.690972 6.706942 4.064467 6.499713 2.065318 6.499713 C 0.0661694 6.499713 -1.93298 6.999501 -0.933405 8.498862 C 0.0661694 9.501484 4.064467 9.501484 6.066664 9.501484 " transform="matrix(1.281795, 0, 0, 1.281795, 1.985497, -0.483647)"/>
<path fill="none" stroke-width="0.7" stroke-linecap="round" stroke-linejoin="round" stroke="rgb(0%, 0%, 0%)" stroke-opacity="1" stroke-miterlimit="4" d="M 6.066664 12.000421 C 5.45412 11.558535 6.487216 13.691774 7.066238 13.99957 C 8.065813 14.499357 10.064962 14.499357 11.427187 14.346983 C 12.067158 13.499782 12.067158 12.999995 11.064536 12.000421 C 10.064962 11.000846 9.565175 12.000421 8.5656 11.500633 " transform="matrix(1.281795, 0, 0, 1.281795, 1.985497, -0.483647)"/>
<path fill="none" stroke-width="0.7" stroke-linecap="round" stroke-linejoin="round" stroke="rgb(0%, 0%, 0%)" stroke-opacity="1" stroke-miterlimit="4" d="M 6.066664 12.999995 C 5.87772 12.826288 4.853766 13.115799 4.649584 13.371788 C 4.512447 13.566827 4.481973 13.792341 4.402738 13.990427 C 4.314361 14.670016 4.631299 15.020476 5.012235 15.462361 C 5.307841 15.797585 5.652206 16.12976 6.057521 16.336989 C 6.505501 16.568598 7.072333 16.763637 7.572121 16.836776 C 7.971341 16.858109 8.702737 16.931248 9.065387 17.00134 C 10.064962 16.498506 10.421517 16.958676 11.064536 15.498931 C 10.991397 14.87115 10.948732 14.813248 10.564749 14.499357 " transform="matrix(1.281795, 0, 0, 1.281795, 1.985497, -0.483647)"/>
<path fill="none" stroke-width="0.7" stroke-linecap="round" stroke-linejoin="round" stroke="rgb(0%, 0%, 0%)" stroke-opacity="1" stroke-miterlimit="4" d="M 4.445403 15.25818 C 3.820669 15.267323 3.878571 15.633021 3.668295 15.916436 C 3.442781 17.266472 4.06142 17.952155 4.984807 18.476322 C 5.615636 18.881638 6.234275 19.101056 6.898627 19.280858 C 8.632645 19.503324 9.42499 19.168101 9.169002 17.507223 C 9.153764 17.479795 9.138527 17.385323 9.080625 17.427988 C 9.059292 17.443226 9.034912 17.562077 9.065387 17.501128 " transform="matrix(1.281795, 0, 0, 1.281795, 1.985497, -0.483647)"/>
<path fill="none" stroke-width="0.7" stroke-linecap="round" stroke-linejoin="miter" stroke="rgb(0%, 0%, 0%)" stroke-opacity="1" stroke-miterlimit="4" d="M 23.065525 16.498506 C 22.065951 15.498931 20.706773 16.041383 20.566589 15.998718 C 17.564818 17.00134 18.064605 17.501128 16.065456 18.000915 C 14.566094 18.500702 13.56652 18.500702 12.067158 18.500702 C 11.247385 18.592127 9.781546 17.99482 9.065387 18.000915 " transform="matrix(1.281795, 0, 0, 1.281795, 1.985497, -0.483647)"/>
<path fill="none" stroke-width="0.7" stroke-linecap="round" stroke-linejoin="round" stroke="rgb(0%, 0%, 0%)" stroke-opacity="1" stroke-miterlimit="4" d="M 15.565669 12.000421 C 15.367583 12.155842 14.066307 12.500208 13.56652 12.500208 C 12.067158 12.500208 12.118965 12.399641 11.064536 12.000421 " transform="matrix(1.281795, 0, 0, 1.281795, 1.985497, -0.483647)"/>
<path fill="none" stroke-width="1.4" stroke-linecap="butt" stroke-linejoin="miter" stroke="rgb(0%, 0%, 0%)" stroke-opacity="1" stroke-miterlimit="4" d="M 22.065951 8.99865 L 22.065951 15.998718 " transform="matrix(1.281795, 0, 0, 1.281795, 1.985497, -0.483647)"/>
</svg>
