<?xml version="1.0" encoding="UTF-8"?>
<svg xmlns="http://www.w3.org/2000/svg" xmlns:xlink="http://www.w3.org/1999/xlink" width="32" height="32" viewBox="0 0 32 32">
<path fill-rule="nonzero" fill="rgb(100%, 100%, 100%)" fill-opacity="1" stroke-width="2.230295" stroke-linecap="square" stroke-linejoin="round" stroke="rgb(100%, 100%, 100%)" stroke-opacity="1" stroke-miterlimit="4" d="M 0.986328 13.929688 L 18.952637 13.929688 L 18.952637 -0.962891 L 0.95459 -0.962891 Z M 0.986328 13.929688 " transform="matrix(1.6, 0, 0, 1.6, 0, 6.4)"/>
<path fill-rule="nonzero" fill="rgb(91.37255%, 96.078432%, 95.686275%)" fill-opacity="1" d="M 3.160156 6.820312 L 28.796875 6.886719 L 28.847656 26.722656 L 3.160156 26.660156 Z M 3.160156 6.820312 "/>
<path fill-rule="nonzero" fill="rgb(74.509805%, 81.176472%, 73.725492%)" fill-opacity="1" d="M 3.199219 24.738281 L 28.746094 24.632812 L 28.796875 12.78125 L 3.160156 12.714844 Z M 3.199219 24.738281 "/>
<path fill-rule="nonzero" fill="rgb(90.196079%, 93.333334%, 80.000001%)" fill-opacity="1" d="M 3.210938 26.789062 L 28.796875 26.851562 L 28.800781 18.765625 C 28.800781 18.765625 21.371094 20.542969 12.800781 18.765625 C 4.226562 16.992188 3.199219 15.78125 3.199219 15.78125 Z M 3.210938 26.789062 "/>
<path fill-rule="nonzero" fill="rgb(50.588238%, 33.333334%, 22.745098%)" fill-opacity="1" d="M 6.742188 27.011719 L 9.601562 27.011719 L 11.503906 12.796875 L 9.601562 12.796875 Z M 6.742188 27.011719 "/>
<path fill-rule="nonzero" fill="rgb(27.450982%, 34.901962%, 0.392157%)" fill-opacity="1" d="M 9.601562 12.796875 C 9.601562 12.796875 10.398438 8.820312 12.800781 7.824219 C 15.199219 6.828125 20.390625 6.277344 20.390625 6.277344 C 20.390625 6.277344 15.355469 8.707031 13.738281 9.8125 C 12.121094 10.917969 11.097656 14.742188 11.097656 14.742188 Z M 9.601562 12.796875 "/>
<path fill-rule="nonzero" fill="rgb(27.450982%, 34.901962%, 0.392157%)" fill-opacity="1" d="M 9.601562 12.796875 L 11.503906 12.796875 C 11.503906 12.796875 10.296875 9.273438 8.648438 8.0625 C 7 6.847656 1.980469 6.875 1.980469 6.875 C 1.980469 6.875 6.148438 9.285156 7.644531 10.300781 C 9.136719 11.320312 9.601562 12.796875 9.601562 12.796875 Z M 9.601562 12.796875 "/>
<path fill-rule="nonzero" fill="rgb(27.450982%, 34.901962%, 0.392157%)" fill-opacity="1" d="M 9.601562 12.796875 L 11.113281 14.238281 C 11.113281 14.238281 13.65625 13.433594 15.160156 13.6875 C 16.667969 13.9375 20.398438 15.675781 20.398438 15.675781 C 20.398438 15.675781 17.738281 11.625 16.027344 11.105469 C 14.320312 10.589844 9.601562 12.796875 9.601562 12.796875 Z M 9.601562 12.796875 "/>
<path fill-rule="nonzero" fill="rgb(27.450982%, 34.901962%, 0.392157%)" fill-opacity="1" d="M 10.757812 14.089844 L 11.503906 12.796875 C 11.503906 12.796875 7.996094 11.332031 6.082031 11.804688 C 4.164062 12.277344 1.179688 16.796875 1.179688 16.796875 C 1.179688 16.796875 5.292969 14.480469 6.910156 14.15625 C 8.527344 13.828125 10.757812 14.089844 10.757812 14.089844 Z M 10.757812 14.089844 "/>
<path fill="none" stroke-width="1.108005" stroke-linecap="butt" stroke-linejoin="miter" stroke="rgb(50.196081%, 50.196081%, 50.196081%)" stroke-opacity="1" stroke-miterlimit="4" d="M 0.500488 14.500977 L 19.499512 14.500977 L 19.499512 -1.460938 L 0.500488 -1.460938 Z M 0.500488 14.500977 " transform="matrix(1.6, 0, 0, 1.6, 0, 6.4)"/>
</svg>
