<?xml version="1.0" encoding="UTF-8"?>
<svg xmlns="http://www.w3.org/2000/svg" xmlns:xlink="http://www.w3.org/1999/xlink" width="32" height="32" viewBox="0 0 32 32">
<path fill="none" stroke-width="2" stroke-linecap="butt" stroke-linejoin="bevel" stroke="rgb(37.64706%, 37.64706%, 37.64706%)" stroke-opacity="1" stroke-miterlimit="4" d="M 21 11.999023 C 21 16.293945 17.967773 19.988281 13.754883 20.826172 C 9.544922 21.664062 5.329102 19.411133 3.685547 15.444336 C 2.041992 11.477539 3.430664 6.901367 6.999023 4.516602 C 10.570312 2.131836 15.328125 2.600586 18.363281 5.635742 " transform="matrix(1.333333, 0, 0, 1.333333, -2, 1.333333)"/>
<path fill="none" stroke-width="2" stroke-linecap="butt" stroke-linejoin="bevel" stroke="rgb(37.64706%, 37.64706%, 37.64706%)" stroke-opacity="1" stroke-miterlimit="4" d="M 17.000977 11.999023 C 17.000977 14.386719 15.316406 16.4375 12.975586 16.90332 C 10.634766 17.369141 8.293945 16.118164 7.379883 13.912109 C 6.46875 11.708984 7.239258 9.168945 9.222656 7.841797 C 11.206055 6.517578 13.848633 6.77832 15.536133 8.46582 " transform="matrix(1.333333, 0, 0, 1.333333, -2, 1.333333)"/>
<path fill-rule="nonzero" fill="rgb(97.254902%, 97.254902%, 97.254902%)" fill-opacity="1" stroke-width="1" stroke-linecap="butt" stroke-linejoin="miter" stroke="rgb(37.64706%, 37.64706%, 37.64706%)" stroke-opacity="1" stroke-miterlimit="4" d="M 14.499023 8.000977 L 17.000977 1.5 L 21.999023 12.500977 L 11.000977 12.500977 Z M 14.499023 8.000977 " transform="matrix(1.333333, 0, 0, 1.333333, 0, 0)"/>
<path fill="none" stroke-width="4" stroke-linecap="butt" stroke-linejoin="bevel" stroke="rgb(97.254902%, 97.254902%, 97.254902%)" stroke-opacity="1" stroke-miterlimit="4" d="M 19.001669 11.999023 C 19.001669 15.338867 16.640341 18.212891 13.36495 18.866211 C 10.08956 19.516602 6.811239 17.764648 5.533896 14.679688 C 4.253622 11.594727 5.334677 8.035156 8.112021 6.180664 C 10.886435 4.323242 14.58956 4.689453 16.950888 7.050781 " transform="matrix(1.333333, 0, 0, 1.333333, -1.999621, 1.333333)"/>
</svg>
