<?xml version="1.0" encoding="UTF-8"?>
<svg xmlns="http://www.w3.org/2000/svg" xmlns:xlink="http://www.w3.org/1999/xlink" width="32" height="32" viewBox="0 0 32 32">
<path fill-rule="nonzero" fill="rgb(0%, 50.196081%, 0%)" fill-opacity="1" stroke-width="1" stroke-linecap="butt" stroke-linejoin="miter" stroke="rgb(0%, 37.64706%, 0%)" stroke-opacity="1" stroke-miterlimit="4" d="M 1.5 9.500977 L 6.999023 17.000977 L 12.500977 9.500977 L 9.500977 10.5 C 9.500977 10.5 9.500977 10.5 9.500977 8.499023 C 9.500977 6.500977 10.5 5.000977 12 4.5 C 13.5 3.999023 14.90918 4.341797 16.5 4.5 C 18.09082 4.658203 21.999023 5.499023 21.999023 5.499023 C 21.999023 5.499023 18.222656 3.615234 15.999023 3 C 13.77832 2.384766 10.5 1.5 8.000977 2.499023 C 5.499023 3.500977 4.5 5.499023 4.5 7.5 C 4.5 9.500977 4.5 10.5 4.5 10.5 Z M 1.5 9.500977 " transform="matrix(1.333333, 0, 0, 1.333333, 0, 0)"/>
<path fill-rule="nonzero" fill="rgb(50.196081%, 50.196081%, 50.196081%)" fill-opacity="1" stroke-width="1" stroke-linecap="butt" stroke-linejoin="miter" stroke="rgb(37.64706%, 37.64706%, 37.64706%)" stroke-opacity="1" stroke-miterlimit="4" d="M 22.5 14.499023 L 17.000977 6.999023 L 11.499023 14.499023 L 14.499023 13.5 C 14.499023 13.5 14.499023 13.5 14.499023 15.500977 C 14.499023 17.499023 13.5 18.999023 12 19.5 C 10.5 20.000977 9.09082 19.658203 7.5 19.5 C 5.90918 19.341797 2.000977 18.500977 2.000977 18.500977 C 2.000977 18.500977 5.777344 20.384766 8.000977 21 C 10.22168 21.615234 13.5 22.5 15.999023 21.500977 C 18.500977 20.499023 19.5 18.500977 19.5 16.5 C 19.5 14.499023 19.5 13.5 19.5 13.5 Z M 22.5 14.499023 " transform="matrix(1.333333, 0, 0, 1.333333, 0, 0)"/>
</svg>
