<?xml version="1.0" encoding="UTF-8"?>
<svg xmlns="http://www.w3.org/2000/svg" xmlns:xlink="http://www.w3.org/1999/xlink" width="32" height="32" viewBox="0 0 32 32">
<path fill-rule="nonzero" fill="rgb(100%, 100%, 100%)" fill-opacity="0.890196" stroke-width="1" stroke-linecap="butt" stroke-linejoin="miter" stroke="rgb(50.196081%, 50.196081%, 50.196081%)" stroke-opacity="1" stroke-miterlimit="4" d="M 0.500977 0.500977 L 0.500977 23.499023 L 18.500977 23.499023 L 18.500977 0.500977 Z M 0.500977 0.500977 " transform="matrix(1.333333, 0, 0, 1.333333, 0, 0)"/>
<path fill-rule="nonzero" fill="rgb(50.196081%, 37.64706%, 25.098041%)" fill-opacity="1" stroke-width="1" stroke-linecap="butt" stroke-linejoin="miter" stroke="rgb(37.64706%, 28.235295%, 18.82353%)" stroke-opacity="1" stroke-miterlimit="4" d="M 21.500977 23.000977 L 23.499023 21 L 18.999023 16.5 L 17.000977 18.500977 Z M 21.500977 23.000977 " transform="matrix(1.333333, 0, 0, 1.333333, 0, 0)"/>
<path fill-rule="nonzero" fill="rgb(87.843138%, 87.843138%, 100%)" fill-opacity="0.752941" stroke-width="1" stroke-linecap="butt" stroke-linejoin="bevel" stroke="rgb(37.64706%, 28.235295%, 18.82353%)" stroke-opacity="1" stroke-miterlimit="4" d="M 19 13.250977 C 19 16.148438 16.536133 18.500977 13.500977 18.500977 C 10.462891 18.500977 7.999023 16.148438 7.999023 13.250977 C 7.999023 10.350586 10.462891 8.000977 13.500977 8.000977 C 16.536133 8.000977 19 10.350586 19 13.250977 Z M 19 13.250977 " transform="matrix(1.333333, 0, 0, 1.333333, 0.666667, 0)"/>
</svg>
