<?xml version="1.0" encoding="UTF-8"?>
<svg xmlns="http://www.w3.org/2000/svg" xmlns:xlink="http://www.w3.org/1999/xlink" width="32" height="32" viewBox="0 0 32 32">
<path fill-rule="nonzero" fill="rgb(100%, 100%, 100%)" fill-opacity="0.890196" stroke-width="1" stroke-linecap="butt" stroke-linejoin="miter" stroke="rgb(50.196081%, 50.196081%, 50.196081%)" stroke-opacity="1" stroke-miterlimit="4" d="M 2.499023 0.500977 L 2.499023 23.499023 L 21.500977 23.499023 L 21.500977 0.500977 Z M 2.499023 0.500977 " transform="matrix(1.333333, 0, 0, 1.333333, 0, 0)"/>
<path fill-rule="nonzero" fill="rgb(0%, 0%, 0%)" fill-opacity="1" d="M 11.667969 9.519531 L 7.6875 9.519531 L 6.8125 12 L 5.519531 12 L 9.144531 2.519531 L 10.230469 2.519531 L 13.855469 12 L 12.582031 12 Z M 8.082031 8.5 L 11.292969 8.5 L 9.6875 4.0625 Z M 5.332031 -0.371094 "/>
<path fill-rule="nonzero" fill="rgb(0%, 0%, 0%)" fill-opacity="1" d="M 19.769531 28 L 19.769531 18.519531 L 22.875 18.519531 C 23.902344 18.519531 24.671875 18.738281 25.1875 19.167969 C 25.699219 19.582031 25.957031 20.207031 25.957031 21.042969 C 25.957031 21.488281 25.832031 21.886719 25.582031 22.230469 C 25.332031 22.5625 24.988281 22.828125 24.5625 23.019531 C 25.074219 23.160156 25.480469 23.433594 25.769531 23.832031 C 26.074219 24.238281 26.230469 24.71875 26.230469 25.269531 C 26.230469 26.121094 25.949219 26.785156 25.394531 27.269531 C 24.839844 27.761719 24.0625 28 23.0625 28 Z M 21.019531 23.5625 L 21.019531 26.980469 L 23.082031 26.980469 C 23.667969 26.980469 24.125 26.828125 24.457031 26.519531 C 24.792969 26.21875 24.957031 25.800781 24.957031 25.269531 C 24.957031 24.136719 24.339844 23.5625 23.105469 23.5625 Z M 21.019531 22.5625 L 22.894531 22.5625 C 23.449219 22.5625 23.886719 22.433594 24.207031 22.167969 C 24.542969 21.890625 24.707031 21.515625 24.707031 21.042969 C 24.707031 20.515625 24.550781 20.136719 24.25 19.894531 C 23.941406 19.660156 23.484375 19.542969 22.875 19.542969 L 21.019531 19.542969 Z M 18.667969 15.628906 "/>
<path fill-rule="nonzero" fill="rgb(50.196081%, 0%, 0%)" fill-opacity="1" d="M 8 13.332031 C 8 13.332031 6.625 20.625 8.667969 22.667969 C 10.710938 24.710938 14.667969 24 14.667969 24 L 13.332031 27.332031 L 19.332031 22.667969 L 13.332031 18 L 14.667969 21.332031 C 14.667969 21.332031 12.082031 22.082031 10.667969 20.667969 C 9.253906 19.253906 10.667969 13.332031 10.667969 13.332031 Z M 8 13.332031 "/>
</svg>
