#define max.xbm_width 16
#define max.xbm_height 16
static unsigned char max.xbm_bits[] = {
   0xc0, 0x03, 0xe0, 0x07, 0xf0, 0x0f, 0x78, 0x1e, 0x3c, 0x3c, 0x1e, 0x78,
   0x0f, 0xf0, 0x07, 0xe0, 0x07, 0xe0, 0x0f, 0xf0, 0x1e, 0x78, 0x3c, 0x3c,
   0x78, 0x1e, 0xf0, 0x0f, 0xe0, 0x07, 0xc0, 0x03};
