<?xml version="1.0" encoding="UTF-8"?>
<svg xmlns="http://www.w3.org/2000/svg" xmlns:xlink="http://www.w3.org/1999/xlink" width="32" height="32" viewBox="0 0 32 32">
<path fill-rule="nonzero" fill="rgb(50.196081%, 50.196081%, 37.64706%)" fill-opacity="1" stroke-width="1" stroke-linecap="butt" stroke-linejoin="round" stroke="rgb(25.098041%, 25.098041%, 18.82353%)" stroke-opacity="1" stroke-miterlimit="4" d="M 6.499878 20.000367 L 6.499878 11.500001 L 21.499024 11.500001 L 18.500123 20.499024 L 15.498902 11.500001 Z M 6.499878 20.000367 " transform="matrix(1.68421, 0, 0, 1.68421, -5.052632, -3.368421)"/>
<path fill-rule="nonzero" fill="rgb(97.254902%, 97.254902%, 97.254902%)" fill-opacity="1" stroke-width="1" stroke-linecap="butt" stroke-linejoin="miter" stroke="rgb(50.196081%, 50.196081%, 50.196081%)" stroke-opacity="1" stroke-miterlimit="4" d="M 18.500123 17.500123 L 18.500123 2.500977 L 7.499512 2.500977 L 7.499512 17.500123 Z M 18.500123 17.500123 " transform="matrix(1.68421, 0, 0, 1.68421, -5.052632, -3.368421)"/>
<path fill-rule="nonzero" fill="rgb(97.254902%, 97.254902%, 97.254902%)" fill-opacity="1" stroke-width="1" stroke-linecap="butt" stroke-linejoin="miter" stroke="rgb(50.196081%, 50.196081%, 50.196081%)" stroke-opacity="1" stroke-miterlimit="4" d="M 16.500855 16.500489 L 16.500855 4.500244 L 5.500244 4.500244 L 5.500244 16.500489 Z M 16.500855 16.500489 " transform="matrix(1.68421, 0, 0, 1.68421, -5.052632, -3.368421)"/>
<path fill-rule="nonzero" fill="rgb(75.294119%, 75.294119%, 62.7451%)" fill-opacity="1" stroke-width="1" stroke-linecap="butt" stroke-linejoin="round" stroke="rgb(50.196081%, 50.196081%, 37.64706%)" stroke-opacity="1" stroke-miterlimit="4" d="M 3.500977 11.500001 L 6.499878 20.499024 L 18.500123 20.499024 L 15.498902 11.500001 Z M 3.500977 11.500001 " transform="matrix(1.68421, 0, 0, 1.68421, -5.052632, -3.368421)"/>
<path fill="none" stroke-width="1" stroke-linecap="round" stroke-linejoin="miter" stroke="rgb(50.196081%, 50.196081%, 37.64706%)" stroke-opacity="1" stroke-miterlimit="4" d="M 3.500977 11.500001 L 5.500244 17.500123 " transform="matrix(1.68421, 0, 0, 1.68421, -5.052632, -3.368421)"/>
<path fill="none" stroke-width="1" stroke-linecap="round" stroke-linejoin="miter" stroke="rgb(50.196081%, 50.196081%, 37.64706%)" stroke-opacity="1" stroke-miterlimit="4" d="M 15.498902 11.500001 L 17.500489 17.500123 " transform="matrix(1.68421, 0, 0, 1.68421, -5.052632, -3.368421)"/>
<path fill="none" stroke-width="1" stroke-linecap="round" stroke-linejoin="miter" stroke="rgb(25.098041%, 25.098041%, 18.82353%)" stroke-opacity="1" stroke-miterlimit="4" d="M 21.499024 11.500001 L 19.499757 17.500123 " transform="matrix(1.68421, 0, 0, 1.68421, -5.052632, -3.368421)"/>
</svg>
