<?xml version="1.0" encoding="UTF-8"?>
<svg xmlns="http://www.w3.org/2000/svg" xmlns:xlink="http://www.w3.org/1999/xlink" width="32" height="32" viewBox="0 0 32 32">
<path fill="none" stroke-width="2" stroke-linecap="butt" stroke-linejoin="bevel" stroke="rgb(37.64706%, 37.64706%, 37.64706%)" stroke-opacity="1" stroke-miterlimit="4" d="M 20.999023 11.999023 C 20.999023 16.293945 17.966797 19.988281 13.756836 20.826172 C 9.543945 21.664062 5.328125 19.411133 3.68457 15.444336 C 2.041016 11.477539 3.429688 6.901367 7.000977 4.516602 C 10.569336 2.131836 15.327148 2.600586 18.365234 5.635742 " transform="matrix(-1.333333, 0, 0, 1.333333, 32.666667, 1.333333)"/>
<path fill="none" stroke-width="2" stroke-linecap="butt" stroke-linejoin="bevel" stroke="rgb(37.64706%, 37.64706%, 37.64706%)" stroke-opacity="1" stroke-miterlimit="4" d="M 17 11.999023 C 17 14.386719 15.31543 16.4375 12.974609 16.90332 C 10.636719 17.369141 8.292969 16.118164 7.381836 13.912109 C 6.467773 11.708984 7.238281 9.168945 9.22168 7.841797 C 11.205078 6.517578 13.847656 6.77832 15.535156 8.46582 " transform="matrix(-1.333333, 0, 0, 1.333333, 32.666667, 1.333333)"/>
<path fill-rule="nonzero" fill="rgb(97.254902%, 97.254902%, 97.254902%)" fill-opacity="1" stroke-width="1" stroke-linecap="butt" stroke-linejoin="miter" stroke="rgb(37.64706%, 37.64706%, 37.64706%)" stroke-opacity="1" stroke-miterlimit="4" d="M 8.499023 8.000977 L 6 1.5 L 0.999023 12.500977 L 12 12.500977 Z M 8.499023 8.000977 " transform="matrix(1.333333, 0, 0, 1.333333, 0, 0)"/>
<path fill="none" stroke-width="4" stroke-linecap="butt" stroke-linejoin="bevel" stroke="rgb(97.254902%, 97.254902%, 97.254902%)" stroke-opacity="1" stroke-miterlimit="4" d="M 19.000692 11.999023 C 19.000692 15.338867 16.642294 18.212891 13.366903 18.866211 C 10.091513 19.516602 6.810263 17.764648 5.532919 14.679688 C 4.255575 11.594727 5.3337 8.035156 8.111044 6.180664 C 10.888388 4.323242 14.588583 4.689453 16.949911 7.050781 " transform="matrix(-1.333333, 0, 0, 1.333333, 32.666288, 1.333333)"/>
</svg>
