<?xml version="1.0" encoding="UTF-8"?>
<svg xmlns="http://www.w3.org/2000/svg" xmlns:xlink="http://www.w3.org/1999/xlink" width="32" height="32" viewBox="0 0 32 32">
<path fill-rule="nonzero" fill="rgb(100%, 94.509804%, 90.980393%)" fill-opacity="1" d="M 1.730469 11.050781 C 1.761719 11.140625 1.78125 11.230469 1.820312 11.3125 C 1.832031 11.339844 1.867188 11.347656 1.886719 11.363281 C 2 11.464844 2.089844 11.460938 2.230469 11.496094 C 2.296875 11.511719 2.347656 11.5625 2.414062 11.574219 C 2.765625 11.648438 3.179688 11.621094 3.53125 11.585938 C 3.835938 11.558594 4.140625 11.578125 4.445312 11.558594 C 4.722656 11.542969 5.007812 11.449219 5.269531 11.363281 C 5.402344 11.320312 5.542969 11.304688 5.679688 11.269531 C 6.171875 11.140625 6.664062 11.035156 7.171875 10.984375 C 7.386719 10.960938 7.605469 10.960938 7.816406 10.9375 C 8.054688 10.910156 8.398438 10.792969 8.640625 10.730469 C 8.785156 10.695312 8.945312 10.679688 9.082031 10.609375 C 9.226562 10.53125 9.347656 10.425781 9.484375 10.339844 C 9.695312 10.203125 9.894531 10.0625 10.101562 9.917969 C 10.152344 9.878906 10.214844 9.851562 10.257812 9.804688 C 10.402344 9.652344 10.554688 9.507812 10.695312 9.351562 C 10.871094 9.15625 11.019531 8.933594 11.226562 8.765625 C 11.453125 8.585938 11.734375 8.425781 12.011719 8.332031 C 12.132812 8.292969 12.261719 8.269531 12.386719 8.226562 C 13.109375 7.960938 13.757812 7.625 14.542969 7.585938 C 14.90625 7.570312 15.285156 7.546875 15.644531 7.609375 C 15.808594 7.640625 15.988281 7.726562 16.144531 7.773438 C 16.472656 7.875 16.78125 8.003906 17.097656 8.132812 C 17.675781 8.375 18.226562 8.824219 18.875 8.859375 C 19.074219 8.867188 19.300781 8.875 19.5 8.839844 C 19.675781 8.808594 19.847656 8.757812 20.027344 8.730469 C 20.566406 8.652344 21.109375 8.578125 21.648438 8.476562 C 21.949219 8.417969 22.234375 8.304688 22.535156 8.238281 C 22.789062 8.179688 23.054688 8.15625 23.3125 8.128906 C 23.773438 8.074219 24.277344 8.066406 24.746094 8.09375 C 24.871094 8.101562 25 8.128906 25.128906 8.132812 C 25.800781 8.171875 26.480469 8.097656 27.15625 8.140625 C 27.488281 8.160156 27.816406 8.234375 28.148438 8.242188 C 28.464844 8.25 28.917969 8.203125 29.214844 8.289062 C 29.445312 8.351562 29.699219 8.445312 29.90625 8.566406 C 29.964844 8.601562 30.011719 8.652344 30.070312 8.6875 C 30.214844 8.773438 30.375 8.832031 30.519531 8.921875 C 30.617188 8.980469 30.9375 9.035156 30.992188 9.132812 C 31.007812 9.15625 30.984375 9.210938 31 9.234375 C 31.027344 9.277344 31.019531 9.378906 31.007812 9.433594 C 30.988281 9.503906 30.933594 9.570312 30.902344 9.636719 C 30.621094 10.257812 29.996094 10.441406 29.394531 10.640625 C 29.210938 10.703125 29.035156 10.785156 28.859375 10.859375 C 28.726562 10.914062 28.566406 10.9375 28.425781 10.972656 C 28.246094 11.011719 28.058594 11.003906 27.878906 11.023438 C 27.601562 11.050781 27.320312 11.074219 27.042969 11.109375 C 26.660156 11.15625 26.273438 11.160156 25.886719 11.199219 C 25.316406 11.253906 24.757812 11.355469 24.199219 11.46875 C 24.085938 11.488281 23.96875 11.484375 23.859375 11.511719 C 23.765625 11.539062 23.679688 11.578125 23.589844 11.605469 C 23.441406 11.644531 23.289062 11.644531 23.140625 11.679688 C 22.941406 11.726562 22.433594 11.871094 22.324219 12.058594 C 22.261719 12.171875 22.273438 12.378906 22.273438 12.503906 C 22.273438 12.753906 22.25 13.011719 22.230469 13.261719 C 22.226562 13.332031 22.199219 13.398438 22.191406 13.46875 C 22.183594 13.566406 22.207031 13.671875 22.179688 13.769531 C 22.074219 14.148438 21.777344 14.4375 21.777344 14.839844 C 21.777344 14.878906 21.769531 14.929688 21.785156 14.964844 C 21.929688 15.296875 22.339844 15.445312 22.613281 15.621094 C 22.753906 15.710938 22.90625 15.804688 23.019531 15.921875 C 23.113281 16.019531 23.199219 16.113281 23.304688 16.195312 C 23.457031 16.316406 23.632812 16.402344 23.753906 16.554688 C 23.828125 16.652344 23.929688 16.769531 23.976562 16.886719 C 24.046875 17.066406 24.132812 17.648438 24.085938 17.832031 C 24.074219 17.894531 24.011719 17.964844 23.976562 18.019531 C 23.867188 18.1875 23.859375 18.320312 23.859375 18.515625 C 23.859375 18.5625 23.84375 18.636719 23.863281 18.679688 C 24.011719 19.015625 24.515625 19.121094 24.773438 19.375 C 24.894531 19.496094 24.996094 19.867188 25.011719 20.03125 C 25.019531 20.128906 25.003906 20.230469 25.015625 20.328125 C 25.027344 20.445312 25.058594 20.570312 25.042969 20.691406 C 25.035156 20.75 24.996094 20.800781 24.984375 20.855469 C 24.933594 21.046875 24.90625 21.242188 24.832031 21.425781 C 24.613281 21.976562 24.128906 22.320312 23.671875 22.65625 C 23.511719 22.777344 23.378906 22.9375 23.21875 23.0625 C 23.097656 23.160156 22.898438 23.277344 22.757812 23.347656 C 22.59375 23.429688 22.371094 23.421875 22.179688 23.507812 C 22 23.589844 21.84375 23.714844 21.679688 23.820312 C 21.5625 23.894531 21.433594 23.933594 21.316406 24.003906 C 21.199219 24.070312 21.089844 24.144531 20.96875 24.203125 C 20.832031 24.265625 20.695312 24.222656 20.554688 24.246094 C 20.277344 24.296875 20.007812 24.382812 19.722656 24.355469 C 19.652344 24.347656 19.589844 24.269531 19.527344 24.238281 C 19.449219 24.199219 19.351562 24.179688 19.28125 24.121094 C 19.136719 24.007812 19.003906 23.875 18.847656 23.773438 C 18.621094 23.628906 18.257812 23.519531 17.992188 23.484375 C 17.785156 23.457031 17.570312 23.503906 17.359375 23.484375 C 16.566406 23.417969 15.765625 23.476562 14.972656 23.449219 C 14.597656 23.4375 14.226562 23.390625 13.859375 23.335938 C 13.695312 23.3125 13.527344 23.308594 13.367188 23.273438 C 13.289062 23.257812 13.214844 23.21875 13.140625 23.195312 C 12.9375 23.121094 12.597656 23.023438 12.386719 22.988281 C 12.207031 22.957031 12.019531 22.894531 11.839844 22.878906 C 11.503906 22.851562 11.105469 22.796875 10.785156 22.691406 C 10.558594 22.621094 10.3125 22.542969 10.101562 22.429688 C 9.902344 22.324219 9.742188 22.175781 9.523438 22.109375 C 9.410156 22.078125 9.292969 22.066406 9.179688 22.042969 C 8.699219 21.9375 8.191406 21.84375 7.75 21.617188 C 7.664062 21.570312 7.570312 21.523438 7.496094 21.460938 C 7.429688 21.40625 7.375 21.339844 7.304688 21.296875 C 7.136719 21.199219 6.949219 21.136719 6.777344 21.058594 C 6.40625 20.882812 6.03125 20.710938 5.679688 20.503906 C 5.222656 20.238281 4.78125 19.894531 4.257812 19.761719 C 3.976562 19.695312 3.691406 19.652344 3.40625 19.625 C 3.238281 19.609375 3.070312 19.558594 2.898438 19.546875 C 2.230469 19.496094 1.703125 19.585938 1.121094 19.921875 C 0.90625 20.050781 0.503906 20.210938 0.328125 19.945312 C 0.191406 19.746094 0.199219 19.472656 0.183594 19.238281 C 0.15625 18.824219 0.136719 18.390625 0.160156 17.972656 C 0.167969 17.871094 0.191406 17.765625 0.195312 17.660156 C 0.214844 17.101562 0.222656 16.542969 0.246094 15.984375 C 0.253906 15.8125 0.25 15.640625 0.269531 15.46875 C 0.285156 15.300781 0.328125 15.136719 0.347656 14.972656 C 0.398438 14.460938 0.488281 13.960938 0.597656 13.460938 C 0.683594 13.066406 0.71875 12.621094 0.886719 12.25 C 0.988281 12.027344 1.113281 11.773438 1.273438 11.585938 C 1.320312 11.53125 1.625 11.289062 1.628906 11.285156 C 1.667969 11.210938 1.695312 11.128906 1.730469 11.050781 Z M 1.730469 11.050781 "/>
<path fill="none" stroke-width="0.672943" stroke-linecap="round" stroke-linejoin="miter" stroke="rgb(0%, 0%, 0%)" stroke-opacity="1" stroke-miterlimit="4" d="M -1.013086 8.869213 C 0.343359 8.89558 2.830664 8.869213 4.275 8.388744 C 5.716406 7.908276 6.677344 6.947338 7.638281 6.466869 C 8.599219 5.986401 9.363867 6.012768 10.040625 5.986401 C 11.004492 5.986401 12.52793 6.449291 13.453711 7.184643 C 13.550391 7.252026 15.328711 8.869213 15.328711 9.352612 C 15.328711 9.83308 16.289648 11.274487 15.328711 11.754955 C 13.887305 12.715893 12.024023 9.956127 11.004492 9.352612 " transform="matrix(1.333333, 0, 0, 1.333333, 1.8, -0.774836)"/>
<path fill="none" stroke-width="0.672943" stroke-linecap="butt" stroke-linejoin="round" stroke="rgb(0%, 0%, 0%)" stroke-opacity="1" stroke-miterlimit="4" d="M 12.926367 6.947338 C 13.767187 6.666088 17.253516 6.466869 19.175391 6.466869 C 21.097266 6.466869 23.019141 6.947338 22.058203 8.388744 C 21.097266 9.352612 17.253516 9.352612 15.328711 9.352612 " transform="matrix(1.333333, 0, 0, 1.333333, 1.8, -0.774836)"/>
<path fill="none" stroke-width="0.672943" stroke-linecap="round" stroke-linejoin="round" stroke="rgb(0%, 0%, 0%)" stroke-opacity="1" stroke-miterlimit="4" d="M 15.328711 11.754955 C 15.917578 11.330151 14.924414 13.380932 14.367773 13.67683 C 13.406836 14.157299 11.484961 14.157299 10.175391 14.010815 C 9.560156 13.196362 9.560156 12.715893 10.524023 11.754955 C 11.484961 10.794018 11.96543 11.754955 12.926367 11.274487 " transform="matrix(1.333333, 0, 0, 1.333333, 1.8, -0.774836)"/>
<path fill="none" stroke-width="0.672943" stroke-linecap="round" stroke-linejoin="round" stroke="rgb(0%, 0%, 0%)" stroke-opacity="1" stroke-miterlimit="4" d="M 15.328711 12.715893 C 15.510352 12.548901 16.494727 12.827221 16.691016 13.073315 C 16.822852 13.260815 16.852148 13.477612 16.92832 13.668041 C 17.013281 14.321362 16.708594 14.658276 16.342383 15.08308 C 16.058203 15.405346 15.727148 15.724682 15.3375 15.923901 C 14.906836 16.146557 14.361914 16.334057 13.881445 16.404369 C 13.497656 16.424877 12.794531 16.49519 12.445898 16.562573 C 11.484961 16.079174 11.142187 16.521557 10.524023 15.118237 C 10.594336 14.514721 10.635352 14.459057 11.004492 14.157299 " transform="matrix(1.333333, 0, 0, 1.333333, 1.8, -0.774836)"/>
<path fill="none" stroke-width="0.672943" stroke-linecap="round" stroke-linejoin="round" stroke="rgb(0%, 0%, 0%)" stroke-opacity="1" stroke-miterlimit="4" d="M 16.887305 14.886791 C 17.487891 14.89558 17.432227 15.247143 17.634375 15.519604 C 17.851172 16.817455 17.256445 17.476635 16.36875 17.980541 C 15.762305 18.37019 15.167578 18.581127 14.528906 18.753979 C 12.861914 18.967846 12.100195 18.64558 12.346289 17.048901 C 12.360937 17.022534 12.375586 16.931713 12.43125 16.972729 C 12.451758 16.987377 12.475195 17.101635 12.445898 17.043041 " transform="matrix(1.333333, 0, 0, 1.333333, 1.8, -0.774836)"/>
<path fill="none" stroke-width="0.672943" stroke-linecap="round" stroke-linejoin="miter" stroke="rgb(0%, 0%, 0%)" stroke-opacity="1" stroke-miterlimit="4" d="M -1.013086 16.079174 C -0.0521485 15.118237 1.254492 15.639721 1.389258 15.598705 C 4.275 16.562573 3.794531 17.043041 5.716406 17.52351 C 7.157812 18.003979 8.11875 18.003979 9.560156 18.003979 C 10.348242 18.091869 11.757422 17.517651 12.445898 17.52351 " transform="matrix(1.333333, 0, 0, 1.333333, 1.8, -0.774836)"/>
<path fill="none" stroke-width="0.672943" stroke-linecap="round" stroke-linejoin="round" stroke="rgb(0%, 0%, 0%)" stroke-opacity="1" stroke-miterlimit="4" d="M 6.196875 11.754955 C 6.387305 11.904369 7.638281 12.235424 8.11875 12.235424 C 9.560156 12.235424 9.510352 12.138744 10.524023 11.754955 " transform="matrix(1.333333, 0, 0, 1.333333, 1.8, -0.774836)"/>
<path fill="none" stroke-width="1.34589" stroke-linecap="butt" stroke-linejoin="miter" stroke="rgb(0%, 0%, 0%)" stroke-opacity="1" stroke-miterlimit="4" d="M -0.0521485 8.869213 L -0.0521485 15.598705 " transform="matrix(1.333333, 0, 0, 1.333333, 1.8, -0.774836)"/>
</svg>
