<?xml version="1.0" encoding="UTF-8"?>
<svg xmlns="http://www.w3.org/2000/svg" xmlns:xlink="http://www.w3.org/1999/xlink" width="32" height="32" viewBox="0 0 32 32">
<path fill="none" stroke-width="1.5" stroke-linecap="round" stroke-linejoin="miter" stroke="rgb(25.098041%, 25.098041%, 25.098041%)" stroke-opacity="1" stroke-miterlimit="4" d="M 3.000488 -0.499023 L 11.999512 -0.499023 " transform="matrix(1.6, 0, 0, 1.6, 0, 6.4)"/>
<path fill="none" stroke-width="1.5" stroke-linecap="round" stroke-linejoin="round" stroke="rgb(25.098041%, 25.098041%, 25.098041%)" stroke-opacity="1" stroke-miterlimit="4" d="M 1.000977 -2.500977 L 10 -2.500977 " transform="matrix(1.6, 0, 0, 1.6, 0, 6.4)"/>
<path fill="none" stroke-width="1.5" stroke-linecap="round" stroke-linejoin="round" stroke="rgb(25.098041%, 25.098041%, 25.098041%)" stroke-opacity="1" stroke-miterlimit="4" d="M 5 1.500488 L 13.999023 1.500488 " transform="matrix(1.6, 0, 0, 1.6, 0, 6.4)"/>
<path fill="none" stroke-width="1.5" stroke-linecap="round" stroke-linejoin="round" stroke="rgb(25.098041%, 25.098041%, 25.098041%)" stroke-opacity="1" stroke-miterlimit="4" d="M 5 3.5 L 11.999512 3.5 " transform="matrix(1.6, 0, 0, 1.6, 0, 6.4)"/>
<path fill="none" stroke-width="1.5" stroke-linecap="round" stroke-linejoin="round" stroke="rgb(25.098041%, 25.098041%, 25.098041%)" stroke-opacity="1" stroke-miterlimit="4" d="M 3.000488 5.499512 L 11.999512 5.499512 " transform="matrix(1.6, 0, 0, 1.6, 0, 6.4)"/>
<path fill="none" stroke-width="1.5" stroke-linecap="round" stroke-linejoin="round" stroke="rgb(25.098041%, 25.098041%, 25.098041%)" stroke-opacity="1" stroke-miterlimit="4" d="M 1.000977 7.499023 L 11.999512 7.499023 " transform="matrix(1.6, 0, 0, 1.6, 0, 6.4)"/>
<path fill="none" stroke-width="1.5" stroke-linecap="round" stroke-linejoin="round" stroke="rgb(25.098041%, 25.098041%, 25.098041%)" stroke-opacity="1" stroke-miterlimit="4" d="M 16.999512 -2.500977 L 18.999023 -2.500977 " transform="matrix(1.6, 0, 0, 1.6, 0, 6.4)"/>
<path fill="none" stroke-width="1.5" stroke-linecap="round" stroke-linejoin="round" stroke="rgb(25.098041%, 25.098041%, 25.098041%)" stroke-opacity="1" stroke-miterlimit="4" d="M 16.999512 -0.499023 L 18.999023 -0.499023 " transform="matrix(1.6, 0, 0, 1.6, 0, 6.4)"/>
<path fill="none" stroke-width="1.5" stroke-linecap="round" stroke-linejoin="round" stroke="rgb(25.098041%, 25.098041%, 25.098041%)" stroke-opacity="1" stroke-miterlimit="4" d="M 16.999512 1.500488 L 18.999023 1.500488 " transform="matrix(1.6, 0, 0, 1.6, 0, 6.4)"/>
<path fill="none" stroke-width="1.5" stroke-linecap="round" stroke-linejoin="round" stroke="rgb(25.098041%, 25.098041%, 25.098041%)" stroke-opacity="1" stroke-miterlimit="4" d="M 16.999512 3.5 L 18.999023 3.5 " transform="matrix(1.6, 0, 0, 1.6, 0, 6.4)"/>
<path fill="none" stroke-width="1.5" stroke-linecap="round" stroke-linejoin="round" stroke="rgb(25.098041%, 25.098041%, 25.098041%)" stroke-opacity="1" stroke-miterlimit="4" d="M 16.999512 5.499512 L 18.999023 5.499512 " transform="matrix(1.6, 0, 0, 1.6, 0, 6.4)"/>
<path fill="none" stroke-width="1.5" stroke-linecap="round" stroke-linejoin="round" stroke="rgb(25.098041%, 25.098041%, 25.098041%)" stroke-opacity="1" stroke-miterlimit="4" d="M 16.999512 7.499023 L 18.999023 7.499023 " transform="matrix(1.6, 0, 0, 1.6, 0, 6.4)"/>
<path fill="none" stroke-width="1.5" stroke-linecap="round" stroke-linejoin="round" stroke="rgb(25.098041%, 25.098041%, 25.098041%)" stroke-opacity="1" stroke-miterlimit="4" d="M 16.999512 9.500977 L 18.999023 9.500977 " transform="matrix(1.6, 0, 0, 1.6, 0, 6.4)"/>
<path fill="none" stroke-width="1.5" stroke-linecap="round" stroke-linejoin="round" stroke="rgb(25.098041%, 25.098041%, 25.098041%)" stroke-opacity="1" stroke-miterlimit="4" d="M 16.999512 11.500488 L 18.999023 11.500488 " transform="matrix(1.6, 0, 0, 1.6, 0, 6.4)"/>
<path fill="none" stroke-width="1.5" stroke-linecap="round" stroke-linejoin="round" stroke="rgb(25.098041%, 25.098041%, 25.098041%)" stroke-opacity="1" stroke-miterlimit="4" d="M 16.999512 13.5 L 18.999023 13.5 " transform="matrix(1.6, 0, 0, 1.6, 0, 6.4)"/>
<path fill="none" stroke-width="1.5" stroke-linecap="round" stroke-linejoin="round" stroke="rgb(25.098041%, 25.098041%, 25.098041%)" stroke-opacity="1" stroke-miterlimit="4" d="M 3.000488 9.500977 L 13.999023 9.500977 " transform="matrix(1.6, 0, 0, 1.6, 0, 6.4)"/>
<path fill="none" stroke-width="1.5" stroke-linecap="round" stroke-linejoin="round" stroke="rgb(25.098041%, 25.098041%, 25.098041%)" stroke-opacity="1" stroke-miterlimit="4" d="M 3.000488 11.500488 L 13.999023 11.500488 " transform="matrix(1.6, 0, 0, 1.6, 0, 6.4)"/>
<path fill="none" stroke-width="1.5" stroke-linecap="round" stroke-linejoin="round" stroke="rgb(25.098041%, 25.098041%, 25.098041%)" stroke-opacity="1" stroke-miterlimit="4" d="M 1.000977 13.5 L 11.999512 13.5 " transform="matrix(1.6, 0, 0, 1.6, 0, 6.4)"/>
</svg>
