<?xml version="1.0" encoding="UTF-8"?>
<svg xmlns="http://www.w3.org/2000/svg" xmlns:xlink="http://www.w3.org/1999/xlink" width="32" height="32" viewBox="0 0 32 32">
<path fill-rule="nonzero" fill="rgb(50.196081%, 50.196081%, 37.64706%)" fill-opacity="1" stroke-width="1" stroke-linecap="butt" stroke-linejoin="round" stroke="rgb(25.098041%, 25.098041%, 18.82353%)" stroke-opacity="1" stroke-miterlimit="4" d="M 21 17.499023 L 16.5 8.499023 L 0.500977 8.499023 L 2.499023 23.499023 L 6.500977 12.500977 Z M 21 17.499023 " transform="matrix(1.333333, 0, 0, 1.333333, 0, 0)"/>
<path fill-rule="nonzero" fill="rgb(97.254902%, 97.254902%, 97.254902%)" fill-opacity="1" stroke-width="1" stroke-linecap="butt" stroke-linejoin="miter" stroke="rgb(50.196081%, 50.196081%, 50.196081%)" stroke-opacity="1" stroke-miterlimit="4" d="M 3.500977 21.999023 L 3.500977 1.5 L 19.5 1.5 L 19.5 21.999023 Z M 3.500977 21.999023 " transform="matrix(1.333333, 0, 0, 1.333333, 0, 0)"/>
<path fill-rule="nonzero" fill="rgb(75.294119%, 75.294119%, 62.7451%)" fill-opacity="1" stroke-width="1" stroke-linecap="butt" stroke-linejoin="round" stroke="rgb(50.196081%, 50.196081%, 37.64706%)" stroke-opacity="1" stroke-miterlimit="4" d="M 23.499023 12.500977 L 19.5 23.499023 L 2.499023 23.499023 L 6.500977 12.500977 Z M 23.499023 12.500977 " transform="matrix(1.333333, 0, 0, 1.333333, 0, 0)"/>
<path fill-rule="nonzero" fill="rgb(50.196081%, 0%, 0%)" fill-opacity="1" stroke-width="1" stroke-linecap="butt" stroke-linejoin="miter" stroke="rgb(37.64706%, 0%, 0%)" stroke-opacity="1" stroke-miterlimit="4" d="M 13.5 0.500977 L 10.5 0.500977 L 10.5 5.499023 L 7.5 5.499023 L 12 10.5 L 16.5 5.499023 L 13.5 5.499023 Z M 13.5 0.500977 " transform="matrix(1.333333, 0, 0, 1.333333, 0, 0)"/>
</svg>
