<?xml version="1.0" encoding="UTF-8"?>
<svg xmlns="http://www.w3.org/2000/svg" xmlns:xlink="http://www.w3.org/1999/xlink" width="32" height="32" viewBox="0 0 32 32">
<path fill-rule="nonzero" fill="rgb(50.196081%, 50.196081%, 37.64706%)" fill-opacity="1" stroke-width="2" stroke-linecap="butt" stroke-linejoin="miter" stroke="rgb(50.196081%, 50.196081%, 49.803922%)" stroke-opacity="1" stroke-miterlimit="4" d="M 0.999023 2.000977 L 0.999023 21.999023 L 15.999023 21.999023 L 15.999023 15.999023 L 12.999023 15.999023 L 12.999023 18.999023 L 3.999023 18.999023 L 3.999023 5.000977 L 12.999023 5.000977 L 12.999023 8.000977 L 15.999023 8.000977 L 15.999023 2.000977 Z M 0.999023 2.000977 " transform="matrix(1.333333, 0, 0, 1.333333, 0, 0)"/>
<path fill-rule="nonzero" fill="rgb(50.196081%, 0%, 0%)" fill-opacity="1" d="M 10.667969 14.667969 L 10.667969 17.332031 L 25.332031 17.332031 L 24 23.332031 L 32 16 L 24 8.667969 L 25.332031 14.667969 Z M 10.667969 14.667969 "/>
<path fill-rule="nonzero" fill="rgb(75.294119%, 75.294119%, 62.7451%)" fill-opacity="1" d="M 1.332031 2.667969 L 1.332031 29.332031 L 21.332031 29.332031 L 21.332031 21.332031 L 17.332031 21.332031 L 17.332031 25.332031 L 5.332031 25.332031 L 5.332031 6.667969 L 17.332031 6.667969 L 17.332031 10.667969 L 21.332031 10.667969 L 21.332031 2.667969 Z M 1.332031 2.667969 "/>
</svg>
