<?xml version="1.0" encoding="UTF-8" standalone="no"?>
<svg
   xmlns:dc="http://purl.org/dc/elements/1.1/"
   xmlns:cc="http://creativecommons.org/ns#"
   xmlns:rdf="http://www.w3.org/1999/02/22-rdf-syntax-ns#"
   xmlns:svg="http://www.w3.org/2000/svg"
   xmlns="http://www.w3.org/2000/svg"
   xmlns:sodipodi="http://sodipodi.sourceforge.net/DTD/sodipodi-0.dtd"
   xmlns:inkscape="http://www.inkscape.org/namespaces/inkscape"
   inkscape:version="1.0 (4035a4fb49, 2020-05-01)"
   sodipodi:docname="out.svg"
   id="svg17"
   version="1.1"
   viewBox="0 0 22 22"
   height="22px"
   width="22px">
  <metadata
     id="metadata23">
    <rdf:RDF>
      <cc:Work
         rdf:about="">
        <dc:format>image/svg+xml</dc:format>
        <dc:type
           rdf:resource="http://purl.org/dc/dcmitype/StillImage" />
      </cc:Work>
    </rdf:RDF>
  </metadata>
  <defs
     id="defs21" />
  <sodipodi:namedview
     inkscape:current-layer="svg17"
     inkscape:window-maximized="0"
     inkscape:window-y="28"
     inkscape:window-x="750"
     inkscape:cy="20.312549"
     inkscape:cx="-17.118784"
     inkscape:zoom="7.24"
     showgrid="false"
     id="namedview19"
     inkscape:window-height="872"
     inkscape:window-width="1440"
     inkscape:pageshadow="2"
     inkscape:pageopacity="0"
     guidetolerance="10"
     gridtolerance="10"
     objecttolerance="10"
     borderopacity="1"
     bordercolor="#666666"
     pagecolor="#ffffff"
     inkscape:document-rotation="0" />
  <g
     transform="matrix(1.537383,0,0,1.537383,56.808156,-2.0332208)"
     id="g867">
    <path
       id="path4"
       d="m -29.738978,4.0367367 c 0.05814,0.9210339 0.05202,1.8420678 0.05508,2.7600418 -0.0031,1.5330172 0.0306,3.0690931 0.0918,4.6021095 0.0153,0.38555 0.03672,0.71908 0.02142,1.101569 -0.0092,0.183595 -0.0306,0.36413 -0.0459,0.547724 0,0 -0.654821,0.208075 -0.654821,0.208075 0.0153,-0.183594 0.03672,-0.36413 0.0459,-0.544665 0.01836,-0.394729 0.0061,-0.709899 0,-1.107688 -0.01224,-0.881255 -0.0092,-0.425328 -0.0153,-1.367782 -0.01224,-1.0801493 -0.05508,-2.1572387 -0.06426,-3.2373882 -0.0092,-0.4314476 -0.01836,-0.8996143 -0.03671,-1.3310622 -0.02142,-0.4130882 -0.03978,-0.8322964 -0.110157,-1.2453847 -0.0061,-0.045899 -0.02142,-0.091797 -0.0306,-0.1376962 0,0 0.743559,-0.247853 0.743559,-0.247853 z m 0,0"
       style="fill:#ffffff;fill-opacity:1;fill-rule:nonzero;stroke:#ffffff;stroke-width:0.224784;stroke-linecap:butt;stroke-linejoin:miter;stroke-miterlimit:4;stroke-opacity:1" />
    <path
       id="path6"
       d="m -33.043685,13.537768 c 1.511597,-0.0092 3.023194,-0.05508 4.531731,-0.08568 0.679301,-0.01224 1.355542,-0.0306 2.031783,-0.04896 0,0 -0.446748,0.605863 -0.446748,0.605863 -0.660941,-0.0092 -1.324942,-0.0153 -1.985883,-0.0092 -1.542196,0.02448 -3.081332,0.05814 -4.620469,0.201954 0,0 0.489586,-0.664001 0.489586,-0.664 z m 0,0"
       style="fill:#ffffff;fill-opacity:1;fill-rule:nonzero;stroke:#ffffff;stroke-width:0.21589;stroke-linecap:butt;stroke-linejoin:miter;stroke-miterlimit:4;stroke-opacity:1" />
    <path
       id="path8"
       d="m -33.729105,6.5122068 c 0.08568,0.6731809 0.293752,1.3341221 0.541605,1.9920031 0.247852,0.6334027 0.716019,1.2239657 1.208665,1.8022901 0,0 -0.734379,0.241733 -0.734379,0.241733 -0.477346,-0.5875044 -0.945513,-1.1841871 -1.190306,-1.8206495 -0.241733,-0.6548209 -0.440628,-1.3157621 -0.615043,-1.9797634 0,0 0.789458,-0.2356133 0.789458,-0.2356133 z m 0,0"
       style="fill:#ffffff;fill-opacity:1;fill-rule:nonzero;stroke:#ffffff;stroke-width:0.229083;stroke-linecap:butt;stroke-linejoin:miter;stroke-miterlimit:4;stroke-opacity:1" />
    <path
       id="path10"
       d="m -32.333785,10.101486 c 1.110749,0.05202 2.218438,0.05814 3.329185,0.03366 0.403909,-0.02142 0.694601,-0.02142 1.08933,-0.0918 0.119336,-0.02142 0.238672,-0.05814 0.354949,-0.08874 0,0 -0.532424,0.71908 -0.532424,0.71908 -0.468167,0.08874 -0.939394,0.131576 -1.41368,0.119336 -1.129108,0.0092 -2.261276,0.0031 -3.393444,0.05508 0,0 0.566084,-0.746619 0.566084,-0.746619 z m 0,0"
       style="fill:#ffffff;fill-opacity:1;fill-rule:nonzero;stroke:#ffffff;stroke-width:0.229083;stroke-linecap:butt;stroke-linejoin:miter;stroke-miterlimit:4;stroke-opacity:1" />
    <path
       id="path12"
       d="m -25.191948,6.3469716 c -0.0306,0.048959 -0.06732,0.097917 -0.09486,0.1468754 -0.107097,0.186655 -0.180535,0.3549502 -0.275392,0.5446649 -0.195835,0.3916688 -0.410029,0.7833377 -0.627282,1.1750066 -0.391669,0.6793008 -0.844536,1.3647211 -1.465699,2.0103635 -0.0765,0.07956 -0.159115,0.156055 -0.241733,0.235613 0,0 -0.7252,0.223374 -0.7252,0.223374 0.08874,-0.07956 0.180536,-0.159115 0.260093,-0.238673 0.495706,-0.4895864 0.905735,-1.0281317 1.233145,-1.548317 0.09792,-0.1529953 0.180535,-0.3121109 0.272333,-0.4681668 0.205013,-0.385549 0.406968,-0.7710978 0.590563,-1.159707 0.477346,-1.0158911 -0.159115,0.3121114 0.235613,-0.5354848 0.02142,-0.045899 0.04896,-0.094857 0.07344,-0.1407558 0,0 0.764978,-0.244793 0.764978,-0.244793 z m 0,0"
       style="fill:#ffffff;fill-opacity:1;fill-rule:nonzero;stroke:#ffffff;stroke-width:0.224083;stroke-linecap:butt;stroke-linejoin:miter;stroke-miterlimit:4;stroke-opacity:1" />
    <path
       id="path14"
       d="m -33.934119,8.1798594 c 0.156055,-0.1254565 0.125456,-0.1070968 0.32129,-0.2264336 0.250913,-0.1499355 0.501826,-0.3059911 0.755799,-0.4498073 0.284572,-0.1591153 0.599743,-0.241733 0.908794,-0.3243508 0.71908,-0.1682952 1.456519,-0.1070968 2.187838,-0.064258 0.566084,0.033659 1.135228,0.061198 1.704372,0.070378 0,0 -0.471227,0.3580098 -0.471227,0.3580098 -0.566084,-0.015298 -1.132168,-0.045899 -1.695192,-0.076497 -0.731319,-0.036719 -1.471818,-0.085678 -2.190897,0.091797 -0.287632,0.079557 -0.339651,0.082617 -0.618103,0.2019542 -0.09486,0.042839 -0.223373,0.2264333 -0.284572,0.1376959 -0.0612,-0.088737 0.177475,-0.1101568 0.260093,-0.1713549 0.100977,-0.076498 -0.34883,0.2172536 -0.309052,0.2019543 0,0 -0.569143,0.2509126 -0.569143,0.2509124 z m 0,0"
       style="fill:#ffffff;fill-opacity:1;fill-rule:nonzero;stroke:#ffffff;stroke-width:0.229018;stroke-linecap:butt;stroke-linejoin:miter;stroke-miterlimit:4;stroke-opacity:1" />
  </g>
</svg>
