#define desk_width 18
#define desk_height 18
static unsigned char desk_bits[] = {
   0x00, 0x00, 0x00, 0x00, 0x00, 0x00, 0x00, 0x00, 0x00, 0x00, 0x00, 0x00,
   0x00, 0x00, 0x00, 0x00, 0x0c, 0x00, 0x00, 0x1e, 0x00, 0x00, 0x1f, 0x00,
   0xe0, 0x0f, 0x00, 0xc0, 0x07, 0x00, 0x80, 0x03, 0x00, 0x40, 0x03, 0x00,
   0x20, 0x02, 0x00, 0x00, 0x00, 0x00, 0x00, 0x00, 0x00, 0x00, 0x00, 0x00,
   0x00, 0x00, 0x00, 0x00, 0x00, 0x00 };
