#define desk_toggled_pressed_width 18
#define desk_toggled_pressed_height 18
static unsigned char desk_toggled_pressed_bits[] = {
   0xc0, 0x07, 0x00, 0xf0, 0x3f, 0x00, 0xf8, 0x7f, 0x00, 0xfc, 0xff, 0x00,
   0xfe, 0xff, 0x01, 0xfe, 0xee, 0x01, 0xff, 0xf4, 0x03, 0xff, 0xf8, 0x03,
   0x7f, 0xf0, 0x03, 0x3f, 0xe0, 0x03, 0x1f, 0xfc, 0x03, 0x1f, 0xfe, 0x03,
   0x3e, 0xff, 0x01, 0xfe, 0xff, 0x01, 0xfc, 0xff, 0x00, 0xf8, 0x7f, 0x00,
   0xf0, 0x3f, 0x00, 0xc0, 0x0f, 0x00 };
