#define max_toggled_pressed_width 18
#define max_toggled_pressed_height 18
static unsigned char max_toggled_pressed_bits[] = {
   0xc0, 0x07, 0x00, 0xf0, 0x3f, 0x00, 0xf8, 0x7f, 0x00, 0xfc, 0xff, 0x00,
   0xfe, 0xfc, 0x01, 0x7e, 0xfb, 0x01, 0xbf, 0xf7, 0x03, 0xdf, 0xef, 0x03,
   0xef, 0xdf, 0x03, 0xef, 0xdf, 0x03, 0xdf, 0xef, 0x03, 0xbf, 0xf7, 0x03,
   0x7e, 0xfb, 0x01, 0xfe, 0xfc, 0x01, 0xfc, 0xff, 0x00, 0xf8, 0x7f, 0x00,
   0xf0, 0x3f, 0x00, 0xc0, 0x0f, 0x00 };
