#define max_toggled_width 18
#define max_toggled_height 18
static unsigned char max_toggled_bits[] = {
   0x00, 0x00, 0x00, 0x00, 0x00, 0x00, 0x00, 0x00, 0x00, 0x00, 0x00, 0x00,
   0x00, 0x03, 0x00, 0x80, 0x04, 0x00, 0x40, 0x08, 0x00, 0x20, 0x10, 0x00,
   0x10, 0x20, 0x00, 0x10, 0x20, 0x00, 0x20, 0x10, 0x00, 0x40, 0x08, 0x00,
   0x80, 0x04, 0x00, 0x00, 0x03, 0x00, 0x00, 0x00, 0x00, 0x00, 0x00, 0x00,
   0x00, 0x00, 0x00, 0x00, 0x00, 0x00 };
