<?xml version="1.0" encoding="UTF-8" standalone="no"?>
<svg
   xmlns:dc="http://purl.org/dc/elements/1.1/"
   xmlns:cc="http://creativecommons.org/ns#"
   xmlns:rdf="http://www.w3.org/1999/02/22-rdf-syntax-ns#"
   xmlns:svg="http://www.w3.org/2000/svg"
   xmlns="http://www.w3.org/2000/svg"
   xmlns:sodipodi="http://sodipodi.sourceforge.net/DTD/sodipodi-0.dtd"
   xmlns:inkscape="http://www.inkscape.org/namespaces/inkscape"
   inkscape:export-ydpi="90"
   inkscape:export-xdpi="90"
   inkscape:export-filename="/home/lotem/code/rime/artworks/zhung.png"
   sodipodi:docname="rime.svg"
   inkscape:version="1.0 (4035a4fb49, 2020-05-01)"
   version="1.1"
   id="svg2985"
   height="48"
   width="48">
  <defs
     id="defs2987" />
  <sodipodi:namedview
     inkscape:document-rotation="0"
     inkscape:window-maximized="1"
     inkscape:window-y="28"
     inkscape:window-x="750"
     inkscape:window-height="872"
     inkscape:window-width="1440"
     inkscape:grid-bbox="true"
     inkscape:document-units="px"
     showgrid="true"
     inkscape:current-layer="layer1"
     inkscape:cy="28.724479"
     inkscape:cx="15.147542"
     inkscape:zoom="7.7403228"
     inkscape:pageshadow="2"
     inkscape:pageopacity="0.0"
     borderopacity="1.0"
     bordercolor="#666666"
     pagecolor="#ffffff"
     id="base" />
  <metadata
     id="metadata2990">
    <rdf:RDF>
      <cc:Work
         rdf:about="">
        <dc:format>image/svg+xml</dc:format>
        <dc:type
           rdf:resource="http://purl.org/dc/dcmitype/StillImage" />
        <dc:title />
      </cc:Work>
    </rdf:RDF>
  </metadata>
  <g
     transform="translate(0,-16)"
     inkscape:label="层"
     id="layer3"
     inkscape:groupmode="layer" />
  <g
     transform="translate(0,-16)"
     inkscape:groupmode="layer"
     inkscape:label="Layer 1"
     id="layer1">
    <rect
       y="21.436213"
       x="5.8125038"
       height="37.127575"
       width="36.374992"
       id="rect3081"
       style="fill:none;fill-opacity:1;stroke:#000000;stroke-width:3.5;stroke-linecap:butt;stroke-linejoin:miter;stroke-miterlimit:4;stroke-dasharray:none;stroke-opacity:1" />
    <path
       inkscape:connector-curvature="0"
       d="m 24.586856,25.958706 c 0.16387,2.558944 0.146004,5.122287 0.157978,7.683102 -0.01267,4.273829 0.08417,8.547795 0.252939,12.820204 0.04287,1.071279 0.10364,1.997211 0.05608,3.065989 -0.02261,0.508 -0.0843,1.014978 -0.126459,1.522466 0,0 -1.821041,0.580081 -1.821041,0.580081 v 0 c 0.04123,-0.505019 0.09789,-1.00962 0.123677,-1.515057 0.05603,-1.098104 0.02088,-1.977685 0.0016,-3.081027 -0.03441,-2.461458 -0.02115,-1.190474 -0.03792,-3.812962 -0.03719,-3.006515 -0.153323,-6.012351 -0.182504,-9.018915 -0.02769,-1.196021 -0.05059,-2.502832 -0.105623,-3.702332 -0.05305,-1.156246 -0.108466,-2.320283 -0.302098,-3.471492 -0.02174,-0.129233 -0.0579,-0.257307 -0.08685,-0.385961 0,0 2.070242,-0.684096 2.070242,-0.684096 z"
       id="path3005"
       style="fill:#000000;stroke:#000000;stroke-width:0.626089;stroke-opacity:1" />
    <path
       inkscape:connector-curvature="0"
       d="m 15.385517,52.415003 c 4.206884,-0.02658 8.414199,-0.15478 12.621286,-0.232222 1.887376,-0.03808 3.77475,-0.09101 5.66212,-0.142982 0,0 -1.245204,1.689253 -1.245204,1.689253 v 0 c -1.845834,-0.02441 -3.691739,-0.04475 -5.537924,-0.02389 -4.29026,0.06782 -8.582098,0.159582 -12.870131,0.564814 0,0 1.369853,-1.854974 1.369853,-1.854973 z"
       id="path3019"
       style="fill:#000000;stroke:#000000;stroke-width:0.601316;stroke-opacity:1" />
    <path
       inkscape:connector-curvature="0"
       d="m 13.471961,32.852 c 0.238949,1.869912 0.822358,3.716472 1.512472,5.545859 0.685273,1.761686 1.989111,3.406454 3.367106,5.016008 0,0 -2.050019,0.673893 -2.050019,0.673893 v 0 c -1.329373,-1.635359 -2.631167,-3.296494 -3.316517,-5.068527 -0.672469,-1.826106 -1.221934,-3.664778 -1.708473,-5.510462 0,0 2.195431,-0.656771 2.195431,-0.656771 z"
       id="path3025"
       style="fill:#000000;stroke:#000000;stroke-width:0.638061;stroke-opacity:1" />
    <path
       inkscape:connector-curvature="0"
       d="m 17.363618,42.847038 c 3.088491,0.141244 6.178154,0.160229 9.267259,0.09441 1.124788,-0.05937 1.938528,-0.06219 3.036867,-0.25604 0.33228,-0.05864 0.661549,-0.163788 0.992322,-0.245683 0,0 -1.484226,2.00044 -1.484226,2.00044 v 0 c -1.308413,0.243329 -2.619566,0.362625 -3.936087,0.333002 -3.152348,0.02528 -6.305185,0.0079 -9.456832,0.151653 0,0 1.580697,-2.077783 1.580697,-2.077782 z"
       id="path3027"
       style="fill:#000000;stroke:#000000;stroke-width:0.638061;stroke-opacity:1" />
    <path
       inkscape:connector-curvature="0"
       d="m 37.253965,32.388431 c -0.08882,0.137147 -0.186999,0.273131 -0.26646,0.411443 -0.297586,0.517986 -0.504654,0.988496 -0.766873,1.514113 -0.545955,1.094363 -1.139268,2.18278 -1.744058,3.27105 -1.092822,1.897028 -2.357537,3.80498 -4.081845,5.602814 -0.212421,0.221479 -0.449381,0.43742 -0.674073,0.656131 0,0 -2.018563,0.621799 -2.018563,0.621799 v 0 c 0.240902,-0.221324 0.495745,-0.439291 0.72271,-0.663972 1.37869,-1.36482 2.517441,-2.866969 3.432209,-4.311984 0.273075,-0.431365 0.503618,-0.867969 0.755427,-1.301955 0.571304,-1.075954 1.137442,-2.152912 1.647344,-3.234883 1.334524,-2.831769 -0.442281,0.867847 0.659829,-1.486959 0.06179,-0.132037 0.135091,-0.263006 0.202639,-0.394508 0,0 2.131714,-0.683089 2.131714,-0.683089 z"
       id="path3029"
       style="fill:#000000;stroke:#000000;stroke-width:0.624134;stroke-opacity:1" />
    <path
       inkscape:connector-curvature="0"
       d="m 12.902275,37.497014 c 0.439414,-0.351264 0.348135,-0.298555 0.897476,-0.630765 0.699261,-0.422875 1.392785,-0.857401 2.105399,-1.254287 0.791865,-0.441023 1.666444,-0.675107 2.527036,-0.900748 2.0045,-0.474252 4.06228,-0.300774 6.092759,-0.182874 1.581321,0.09784 3.163785,0.167336 4.747554,0.192263 0,0 -1.306731,1.004531 -1.306731,1.004531 v 0 c -1.576636,-0.0501 -3.151869,-0.135474 -4.727462,-0.213788 -2.034023,-0.105018 -4.094882,-0.24275 -6.097606,0.250556 -0.806763,0.224728 -0.943542,0.234136 -1.719821,0.565312 -0.269858,0.115128 -0.622622,0.62719 -0.796105,0.379119 -0.170034,-0.24314 0.495643,-0.301103 0.728457,-0.475852 0.275527,-0.206809 -0.974508,0.606351 -0.860365,0.56615 0,0 -1.590591,0.700383 -1.590591,0.700383 z"
       id="path3071"
       style="fill:#000000;stroke:#000000;stroke-width:0.637881;stroke-miterlimit:4;stroke-dasharray:none;stroke-opacity:1" />
  </g>
</svg>
