<?xml version="1.0" encoding="UTF-8" standalone="no"?>
<svg
   xmlns:dc="http://purl.org/dc/elements/1.1/"
   xmlns:cc="http://creativecommons.org/ns#"
   xmlns:rdf="http://www.w3.org/1999/02/22-rdf-syntax-ns#"
   xmlns:svg="http://www.w3.org/2000/svg"
   xmlns="http://www.w3.org/2000/svg"
   xmlns:sodipodi="http://sodipodi.sourceforge.net/DTD/sodipodi-0.dtd"
   xmlns:inkscape="http://www.inkscape.org/namespaces/inkscape"
   width="22"
   height="22"
   viewBox="0 0 22 22"
   version="1.1"
   id="svg11"
   sodipodi:docname="nm-signal-50.svg"
   inkscape:version="1.0 (4035a4fb49, 2020-05-01)">
  <metadata
     id="metadata17">
    <rdf:RDF>
      <cc:Work
         rdf:about="">
        <dc:format>image/svg+xml</dc:format>
        <dc:type
           rdf:resource="http://purl.org/dc/dcmitype/StillImage" />
        <dc:title />
      </cc:Work>
    </rdf:RDF>
  </metadata>
  <defs
     id="defs15" />
  <sodipodi:namedview
     inkscape:document-rotation="0"
     pagecolor="#282828"
     bordercolor="#666666"
     borderopacity="1"
     objecttolerance="10"
     gridtolerance="10"
     guidetolerance="10"
     inkscape:pageopacity="0"
     inkscape:pageshadow="2"
     inkscape:window-width="1910"
     inkscape:window-height="1021"
     id="namedview13"
     showgrid="false"
     units="px"
     inkscape:zoom="18.818182"
     inkscape:cx="0.037369534"
     inkscape:cy="14.19049"
     inkscape:window-x="4"
     inkscape:window-y="54"
     inkscape:window-maximized="0"
     inkscape:current-layer="g879" />
  <g
     id="g879"
     transform="matrix(1.0500001,0,0,1.1260953,-0.63408248,-1.1295667)">
    <path
       sodipodi:nodetypes="ccccc"
       style="fill:#ffffff;fill-opacity:0.439216;fill-rule:nonzero;stroke:none;stroke-width:1.115"
       d="M 21.556267,5.7724583 20.427072,7.3016118 C 15.510648,2.8579308 5.3979804,3.2452825 1.6893154,7.3978455 c -0.92406618,-1.0024726 0,0 -1.08542738,-1.2667035 C 4.173886,1.1297701 17.651684,1.1326314 21.556267,5.7724583 Z"
       id="path2" />
    <path
       sodipodi:nodetypes="ccccc"
       style="fill:#ffffff;fill-opacity:0.439216;fill-rule:nonzero;stroke:none;stroke-width:1.115"
       d="M 18.740557,9.4607306 17.485185,11.156504 C 14.579732,8.219026 8.6439754,7.3394198 4.8239517,11.179169 3.8998854,10.181294 4.0303976,10.368045 3.4660092,9.6955476 7.8346981,5.3039784 15.733216,6.4027269 18.740557,9.4607306 Z"
       id="path4" />
    <path
       style="fill:#ffffff;fill-opacity:0.439216;fill-rule:nonzero;stroke:none;stroke-width:1.19662"
       d="m 12.082422,16.00375 c 0.565754,0.579447 0.57944,1.546785 0.03193,2.140599 -0.547502,0.593812 -1.469128,0.60818 -2.03488,0.03351 -0.5657519,-0.574657 -0.584002,-1.546787 -0.03193,-2.140599 0.547501,-0.593813 1.469129,-0.60818 2.034879,-0.03352 z m -0.839502,0.909874 c -0.09581,-0.100571 -0.237249,-0.100571 -0.333063,0.0048 -0.09581,0.105353 -0.09126,0.249016 0.0045,0.349583 0.100383,0.100571 0.241815,0.100571 0.337628,-0.0048 0.09581,-0.105353 0.09126,-0.249018 -0.0092,-0.349584 z m 0,0"
       id="path8" />
    <path
       id="path4-3"
       d="M 15.180622,12.992106 14.24088,14.430971 C 12.759902,12.797633 10.265146,12.158083 8.1156394,14.505476 7.5956723,13.895434 7.2971116,13.557847 6.9795332,13.146722 9.4377707,10.461976 13.488406,11.122619 15.180622,12.992104 Z"
       style="fill:#ffffff;fill-opacity:0.439216;fill-rule:nonzero;stroke:none;stroke-width:0.653964"
       sodipodi:nodetypes="ccccc" />
    <path
       transform="matrix(0.95238086,0,0,0.88802431,0.60388802,1.0030827)"
       id="path834"
       d="M 10.366116,19.621398 C 9.4537279,19.144761 9.2364605,17.74572 9.9488284,16.934377 c 0.4222866,-0.480958 1.0878996,-0.616053 1.6575606,-0.336424 0.539864,0.265003 0.853739,0.80186 0.860469,1.471764 0.0052,0.517896 -0.120074,0.877601 -0.422988,1.214514 -0.310239,0.34506 -0.615559,0.485969 -1.052993,0.485969 -0.269059,0 -0.399302,-0.03102 -0.624761,-0.148802 z m 0.804104,-1.285981 c 0.05845,-0.05845 0.10628,-0.154106 0.10628,-0.21256 0,-0.115807 -0.17499,-0.31884 -0.274801,-0.31884 -0.11732,0 -0.2566,0.175898 -0.2566,0.324063 0,0.09287 0.04407,0.179042 0.118104,0.230894 0.151989,0.106458 0.179081,0.104379 0.307017,-0.02356 z"
       style="opacity:0.852;fill:#ffffff;fill-rule:evenodd;stroke:#ffffff;stroke-width:0.0474541" />
    <path
       transform="matrix(0.95238086,0,0,0.88802431,0.60388802,1.0030827)"
       id="path836"
       d="M 7.2809279,14.41307 6.7128921,13.685659 7.0683675,13.324886 c 0.8258381,-0.838144 1.9589391,-1.408573 3.1414555,-1.58148 0.274128,-0.04008 0.702613,-0.05373 1.114685,-0.0355 1.397161,0.06181 2.659266,0.566513 3.598463,1.438983 l 0.363898,0.338044 -0.471183,0.777898 c -0.259151,0.427844 -0.482603,0.777898 -0.49656,0.777898 -0.01396,0 -0.216345,-0.179649 -0.44975,-0.39922 -0.508245,-0.478121 -0.997994,-0.779441 -1.62417,-0.999281 -0.418798,-0.147033 -0.525842,-0.162824 -1.101556,-0.162498 -0.54776,3.08e-4 -0.697629,0.02029 -1.062802,0.14167 -0.6094206,0.202569 -1.1713824,0.553767 -1.7171448,1.073131 -0.2615122,0.248863 -0.4843108,0.451009 -0.4951081,0.449213 -0.010797,-0.0018 -0.2752475,-0.3306 -0.5876672,-0.730677 z"
       style="opacity:0.852;fill:#ffffff;fill-rule:evenodd;stroke:#ffffff;stroke-width:0.0474541" />
  </g>
</svg>
